<svg width="446" height="190" viewBox="0 0 446 190" fill="none" xmlns="http://www.w3.org/2000/svg">
<g clip-path="url(#clip0_29_323)">
<rect x="51" y="18" width="24" height="16" fill="#D9D9D9"/>
<rect x="51" y="36" width="24" height="16" fill="#D74646"/>
<rect x="51" y="54" width="24" height="16" fill="#D9D9D9"/>
<rect x="51" y="72" width="24" height="16" fill="#019658"/>
<rect x="77" y="18" width="24" height="16" fill="#D9D9D9"/>
<rect x="77" y="36" width="24" height="16" fill="#D74646"/>
<rect x="77" y="54" width="24" height="16" fill="#D9D9D9"/>
<rect x="77" y="72" width="24" height="16" fill="#019658"/>
<rect x="103" y="18" width="24" height="16" fill="#D9D9D9"/>
<rect x="103" y="36" width="24" height="16" fill="#D74646"/>
<rect x="103" y="54" width="24" height="16" fill="#D9D9D9"/>
<rect x="103" y="72" width="24" height="16" fill="#019658"/>
<rect x="129" y="18" width="24" height="16" fill="#D9D9D9"/>
<rect x="129" y="36" width="24" height="16" fill="#D74646"/>
<rect x="129" y="54" width="24" height="16" fill="#D9D9D9"/>
<rect x="129" y="72" width="24" height="16" fill="#019658"/>
<path d="M80.8406 12.156C80.2806 12.156 79.8086 12.078 79.4246 11.922C79.0406 11.762 78.7466 11.542 78.5426 11.262C78.3426 10.978 78.2386 10.646 78.2306 10.266H79.3046C79.3206 10.598 79.4526 10.844 79.7006 11.004C79.9526 11.164 80.2926 11.244 80.7206 11.244C80.9486 11.244 81.1546 11.208 81.3386 11.136C81.5266 11.064 81.6746 10.966 81.7826 10.842C81.8946 10.718 81.9506 10.578 81.9506 10.422C81.9506 10.226 81.8786 10.072 81.7346 9.96C81.5906 9.844 81.3586 9.742 81.0386 9.654L79.8566 9.252C79.3846 9.092 79.0226 8.88 78.7706 8.616C78.5186 8.348 78.3926 8.028 78.3926 7.656C78.3926 7.18 78.6046 6.798 79.0286 6.51C79.4526 6.218 80.0146 6.072 80.7146 6.072C81.4386 6.072 81.9966 6.226 82.3886 6.534C82.7846 6.838 82.9906 7.22 83.0066 7.68H81.9086C81.8806 7.452 81.7666 7.278 81.5666 7.158C81.3706 7.034 81.0866 6.972 80.7146 6.972C80.3666 6.972 80.0926 7.048 79.8926 7.2C79.6966 7.352 79.5986 7.524 79.5986 7.716C79.5986 8.06 79.8946 8.316 80.4866 8.484L81.7286 8.922C82.2006 9.074 82.5646 9.27 82.8206 9.51C83.0766 9.75 83.2046 10.054 83.2046 10.422C83.2046 10.718 83.1066 10.998 82.9106 11.262C82.7146 11.526 82.4386 11.742 82.0826 11.91C81.7306 12.074 81.3166 12.156 80.8406 12.156ZM87.115 12.156C86.619 12.156 86.171 12.028 85.771 11.772C85.371 11.516 85.053 11.16 84.817 10.704C84.585 10.248 84.469 9.72 84.469 9.12C84.469 8.484 84.585 7.94 84.817 7.488C85.049 7.032 85.365 6.682 85.765 6.438C86.165 6.194 86.615 6.072 87.115 6.072C87.563 6.072 87.947 6.164 88.267 6.348C88.587 6.528 88.845 6.772 89.041 7.08C89.237 7.384 89.371 7.73 89.443 8.118C89.519 8.506 89.533 8.906 89.485 9.318H85.381V8.658H88.705L88.429 8.838C88.441 8.622 88.429 8.406 88.393 8.19C88.361 7.974 88.297 7.776 88.201 7.596C88.105 7.412 87.969 7.266 87.793 7.158C87.621 7.046 87.401 6.99 87.133 6.99C86.797 6.99 86.515 7.074 86.287 7.242C86.063 7.41 85.893 7.636 85.777 7.92C85.661 8.2 85.603 8.508 85.603 8.844V9.306C85.603 9.678 85.659 10.008 85.771 10.296C85.883 10.584 86.049 10.812 86.269 10.98C86.493 11.144 86.775 11.226 87.115 11.226C87.447 11.226 87.721 11.148 87.937 10.992C88.157 10.836 88.293 10.602 88.345 10.29H89.509C89.449 10.666 89.311 10.994 89.095 11.274C88.879 11.554 88.601 11.772 88.261 11.928C87.925 12.08 87.543 12.156 87.115 12.156ZM91.2911 12V3.798H92.4311V12H91.2911ZM96.8416 12.156C96.3456 12.156 95.8976 12.028 95.4976 11.772C95.0976 11.516 94.7796 11.16 94.5436 10.704C94.3116 10.248 94.1956 9.72 94.1956 9.12C94.1956 8.484 94.3116 7.94 94.5436 7.488C94.7756 7.032 95.0916 6.682 95.4916 6.438C95.8916 6.194 96.3416 6.072 96.8416 6.072C97.2896 6.072 97.6736 6.164 97.9936 6.348C98.3136 6.528 98.5716 6.772 98.7676 7.08C98.9636 7.384 99.0976 7.73 99.1696 8.118C99.2456 8.506 99.2596 8.906 99.2116 9.318H95.1076V8.658H98.4316L98.1556 8.838C98.1676 8.622 98.1556 8.406 98.1196 8.19C98.0876 7.974 98.0236 7.776 97.9276 7.596C97.8316 7.412 97.6956 7.266 97.5196 7.158C97.3476 7.046 97.1276 6.99 96.8596 6.99C96.5236 6.99 96.2416 7.074 96.0136 7.242C95.7896 7.41 95.6196 7.636 95.5036 7.92C95.3876 8.2 95.3296 8.508 95.3296 8.844V9.306C95.3296 9.678 95.3856 10.008 95.4976 10.296C95.6096 10.584 95.7756 10.812 95.9956 10.98C96.2196 11.144 96.5016 11.226 96.8416 11.226C97.1736 11.226 97.4476 11.148 97.6636 10.992C97.8836 10.836 98.0196 10.602 98.0716 10.29H99.2356C99.1756 10.666 99.0376 10.994 98.8216 11.274C98.6056 11.554 98.3276 11.772 97.9876 11.928C97.6516 12.08 97.2696 12.156 96.8416 12.156ZM103.118 12.156C102.646 12.156 102.206 12.03 101.798 11.778C101.39 11.526 101.062 11.172 100.814 10.716C100.566 10.26 100.442 9.724 100.442 9.108C100.442 8.46 100.566 7.912 100.814 7.464C101.062 7.012 101.39 6.668 101.798 6.432C102.206 6.192 102.646 6.072 103.118 6.072C103.466 6.072 103.776 6.128 104.048 6.24C104.32 6.348 104.554 6.496 104.75 6.684C104.946 6.868 105.104 7.076 105.224 7.308C105.348 7.54 105.434 7.78 105.482 8.028L104.324 8.088C104.24 7.788 104.092 7.548 103.88 7.368C103.672 7.184 103.414 7.092 103.106 7.092C102.846 7.092 102.6 7.166 102.368 7.314C102.14 7.458 101.954 7.68 101.81 7.98C101.67 8.276 101.6 8.652 101.6 9.108C101.6 9.532 101.666 9.894 101.798 10.194C101.93 10.494 102.11 10.724 102.338 10.884C102.566 11.044 102.822 11.124 103.106 11.124C103.514 11.124 103.818 11.026 104.018 10.83C104.222 10.63 104.324 10.356 104.324 10.008H105.482C105.482 10.412 105.388 10.776 105.2 11.1C105.012 11.424 104.74 11.682 104.384 11.874C104.032 12.062 103.61 12.156 103.118 12.156ZM109.129 12.156C108.801 12.156 108.505 12.094 108.241 11.97C107.977 11.846 107.767 11.66 107.611 11.412C107.459 11.16 107.383 10.844 107.383 10.464V4.656H108.517V10.428C108.517 10.972 108.771 11.244 109.279 11.244C109.435 11.244 109.587 11.228 109.735 11.196C109.883 11.16 110.051 11.108 110.239 11.04L110.401 11.85C110.189 11.938 109.979 12.01 109.771 12.066C109.567 12.126 109.353 12.156 109.129 12.156ZM106.501 7.002V6.228H110.227V7.002H106.501ZM112.541 4.998C112.313 4.998 112.133 4.936 112.001 4.812C111.873 4.684 111.809 4.512 111.809 4.296C111.809 4.088 111.873 3.924 112.001 3.804C112.133 3.68 112.313 3.618 112.541 3.618C112.765 3.618 112.941 3.68 113.069 3.804C113.201 3.924 113.267 4.088 113.267 4.296C113.267 4.512 113.201 4.684 113.069 4.812C112.941 4.936 112.765 4.998 112.541 4.998ZM111.971 12V6.21H113.111V12H111.971ZM117.78 12.156C117.256 12.156 116.786 12.042 116.37 11.814C115.958 11.586 115.632 11.246 115.392 10.794C115.152 10.342 115.032 9.784 115.032 9.12C115.032 8.444 115.152 7.882 115.392 7.434C115.632 6.982 115.958 6.642 116.37 6.414C116.786 6.186 117.256 6.072 117.78 6.072C118.296 6.072 118.76 6.186 119.172 6.414C119.584 6.642 119.908 6.982 120.144 7.434C120.384 7.882 120.504 8.444 120.504 9.12C120.504 9.784 120.384 10.342 120.144 10.794C119.908 11.246 119.584 11.586 119.172 11.814C118.76 12.042 118.296 12.156 117.78 12.156ZM117.743 11.16C118.076 11.16 118.362 11.08 118.602 10.92C118.846 10.76 119.032 10.528 119.16 10.224C119.292 9.916 119.358 9.548 119.358 9.12C119.358 8.464 119.224 7.956 118.956 7.596C118.692 7.236 118.31 7.056 117.81 7.056C117.474 7.056 117.184 7.138 116.94 7.302C116.7 7.462 116.514 7.696 116.382 8.004C116.254 8.308 116.19 8.68 116.19 9.12C116.19 9.764 116.324 10.266 116.592 10.626C116.86 10.982 117.244 11.16 117.743 11.16ZM126.308 12V8.616C126.308 8.116 126.188 7.738 125.948 7.482C125.712 7.222 125.392 7.092 124.988 7.092C124.668 7.092 124.388 7.18 124.148 7.356C123.912 7.528 123.728 7.782 123.596 8.118C123.468 8.45 123.404 8.856 123.404 9.336H122.996C122.996 8.628 123.086 8.032 123.266 7.548C123.45 7.064 123.712 6.698 124.052 6.45C124.392 6.198 124.8 6.072 125.276 6.072C125.74 6.072 126.132 6.176 126.452 6.384C126.776 6.592 127.022 6.888 127.19 7.272C127.358 7.652 127.442 8.1 127.442 8.616V12H126.308ZM122.264 12V6.228H123.254L123.404 7.476V12H122.264Z" fill="black"/>
<path d="M274 72L269.039 69.0468L268.962 74.8198L274 72ZM227.696 39.1028C223.344 42.4314 221.022 50.5021 226.248 57.8614C231.463 65.2053 244.108 71.7486 269.483 72.4398L269.511 71.4401C244.234 70.7517 232 64.2341 227.063 57.2825C222.138 50.3462 224.394 42.8868 228.304 39.8972L227.696 39.1028Z" fill="black"/>
<path d="M390 72L394.961 69.0468L395.038 74.8198L390 72ZM436.304 39.1028C440.656 42.4314 442.978 50.5021 437.752 57.8614C432.537 65.2053 419.892 71.7486 394.517 72.4398L394.489 71.4401C419.766 70.7517 432 64.2341 436.937 57.2825C441.862 50.3462 439.606 42.8868 435.696 39.8972L436.304 39.1028Z" fill="black"/>
<rect x="221" y="28" width="24" height="16" fill="#D74646"/>
<rect x="247" y="28" width="24" height="16" fill="#D74646"/>
<rect x="273" y="28" width="24" height="16" fill="#D74646"/>
<rect x="299" y="28" width="24" height="16" fill="#D74646"/>
<rect x="281" y="64" width="24" height="16" fill="#D74646"/>
<rect x="307" y="64" width="24" height="16" fill="#D74646"/>
<rect x="333" y="64" width="24" height="16" fill="#2558DB"/>
<rect x="359" y="64" width="24" height="16" fill="#2558DB"/>
<rect x="341" y="28" width="24" height="16" fill="#2558DB"/>
<rect x="367" y="28" width="24" height="16" fill="#2558DB"/>
<rect x="393" y="28" width="24" height="16" fill="#2558DB"/>
<rect x="419" y="28" width="24" height="16" fill="#2558DB"/>
<path d="M308.499 12.156C308.027 12.156 307.587 12.03 307.179 11.778C306.771 11.526 306.443 11.172 306.195 10.716C305.947 10.26 305.823 9.724 305.823 9.108C305.823 8.46 305.947 7.912 306.195 7.464C306.443 7.012 306.771 6.668 307.179 6.432C307.587 6.192 308.027 6.072 308.499 6.072C308.847 6.072 309.157 6.128 309.429 6.24C309.701 6.348 309.935 6.496 310.131 6.684C310.327 6.868 310.485 7.076 310.605 7.308C310.729 7.54 310.815 7.78 310.863 8.028L309.705 8.088C309.621 7.788 309.473 7.548 309.261 7.368C309.053 7.184 308.795 7.092 308.487 7.092C308.227 7.092 307.981 7.166 307.749 7.314C307.521 7.458 307.335 7.68 307.191 7.98C307.051 8.276 306.981 8.652 306.981 9.108C306.981 9.532 307.047 9.894 307.179 10.194C307.311 10.494 307.491 10.724 307.719 10.884C307.947 11.044 308.203 11.124 308.487 11.124C308.895 11.124 309.199 11.026 309.399 10.83C309.603 10.63 309.705 10.356 309.705 10.008H310.863C310.863 10.412 310.769 10.776 310.581 11.1C310.393 11.424 310.121 11.682 309.765 11.874C309.413 12.062 308.991 12.156 308.499 12.156ZM312.656 12V6.21H313.796V12H312.656ZM313.484 9.42C313.484 8.68 313.56 8.066 313.712 7.578C313.868 7.086 314.084 6.72 314.36 6.48C314.64 6.24 314.968 6.12 315.344 6.12C315.456 6.12 315.56 6.128 315.656 6.144C315.756 6.16 315.854 6.182 315.95 6.21L315.908 7.344C315.8 7.316 315.682 7.292 315.554 7.272C315.43 7.248 315.316 7.236 315.212 7.236C314.884 7.236 314.616 7.324 314.408 7.5C314.2 7.672 314.046 7.922 313.946 8.25C313.846 8.574 313.796 8.964 313.796 9.42H313.484ZM319.317 12.156C318.793 12.156 318.323 12.042 317.907 11.814C317.495 11.586 317.169 11.246 316.929 10.794C316.689 10.342 316.569 9.784 316.569 9.12C316.569 8.444 316.689 7.882 316.929 7.434C317.169 6.982 317.495 6.642 317.907 6.414C318.323 6.186 318.793 6.072 319.317 6.072C319.833 6.072 320.297 6.186 320.709 6.414C321.121 6.642 321.445 6.982 321.681 7.434C321.921 7.882 322.041 8.444 322.041 9.12C322.041 9.784 321.921 10.342 321.681 10.794C321.445 11.246 321.121 11.586 320.709 11.814C320.297 12.042 319.833 12.156 319.317 12.156ZM319.281 11.16C319.613 11.16 319.899 11.08 320.139 10.92C320.383 10.76 320.569 10.528 320.697 10.224C320.829 9.916 320.895 9.548 320.895 9.12C320.895 8.464 320.761 7.956 320.493 7.596C320.229 7.236 319.847 7.056 319.347 7.056C319.011 7.056 318.721 7.138 318.477 7.302C318.237 7.462 318.051 7.696 317.919 8.004C317.791 8.308 317.727 8.68 317.727 9.12C317.727 9.764 317.861 10.266 318.129 10.626C318.397 10.982 318.781 11.16 319.281 11.16ZM325.913 12.156C325.353 12.156 324.881 12.078 324.497 11.922C324.113 11.762 323.819 11.542 323.615 11.262C323.415 10.978 323.311 10.646 323.303 10.266H324.377C324.393 10.598 324.525 10.844 324.773 11.004C325.025 11.164 325.365 11.244 325.793 11.244C326.021 11.244 326.227 11.208 326.411 11.136C326.599 11.064 326.747 10.966 326.855 10.842C326.967 10.718 327.023 10.578 327.023 10.422C327.023 10.226 326.951 10.072 326.807 9.96C326.663 9.844 326.431 9.742 326.111 9.654L324.929 9.252C324.457 9.092 324.095 8.88 323.843 8.616C323.591 8.348 323.465 8.028 323.465 7.656C323.465 7.18 323.677 6.798 324.101 6.51C324.525 6.218 325.087 6.072 325.787 6.072C326.511 6.072 327.069 6.226 327.461 6.534C327.857 6.838 328.063 7.22 328.079 7.68H326.981C326.953 7.452 326.839 7.278 326.639 7.158C326.443 7.034 326.159 6.972 325.787 6.972C325.439 6.972 325.165 7.048 324.965 7.2C324.769 7.352 324.671 7.524 324.671 7.716C324.671 8.06 324.967 8.316 325.559 8.484L326.801 8.922C327.273 9.074 327.637 9.27 327.893 9.51C328.149 9.75 328.277 10.054 328.277 10.422C328.277 10.718 328.179 10.998 327.983 11.262C327.787 11.526 327.511 11.742 327.155 11.91C326.803 12.074 326.389 12.156 325.913 12.156ZM332.229 12.156C331.669 12.156 331.197 12.078 330.813 11.922C330.429 11.762 330.135 11.542 329.931 11.262C329.731 10.978 329.627 10.646 329.619 10.266H330.693C330.709 10.598 330.841 10.844 331.089 11.004C331.341 11.164 331.681 11.244 332.109 11.244C332.337 11.244 332.543 11.208 332.727 11.136C332.915 11.064 333.063 10.966 333.171 10.842C333.283 10.718 333.339 10.578 333.339 10.422C333.339 10.226 333.267 10.072 333.123 9.96C332.979 9.844 332.747 9.742 332.427 9.654L331.245 9.252C330.773 9.092 330.411 8.88 330.159 8.616C329.907 8.348 329.781 8.028 329.781 7.656C329.781 7.18 329.993 6.798 330.417 6.51C330.841 6.218 331.403 6.072 332.103 6.072C332.827 6.072 333.385 6.226 333.777 6.534C334.173 6.838 334.379 7.22 334.395 7.68H333.297C333.269 7.452 333.155 7.278 332.955 7.158C332.759 7.034 332.475 6.972 332.103 6.972C331.755 6.972 331.481 7.048 331.281 7.2C331.085 7.352 330.987 7.524 330.987 7.716C330.987 8.06 331.283 8.316 331.875 8.484L333.117 8.922C333.589 9.074 333.953 9.27 334.209 9.51C334.465 9.75 334.593 10.054 334.593 10.422C334.593 10.718 334.495 10.998 334.299 11.262C334.103 11.526 333.827 11.742 333.471 11.91C333.119 12.074 332.705 12.156 332.229 12.156ZM338.606 12.156C338.082 12.156 337.612 12.042 337.196 11.814C336.784 11.586 336.458 11.246 336.218 10.794C335.978 10.342 335.858 9.784 335.858 9.12C335.858 8.444 335.978 7.882 336.218 7.434C336.458 6.982 336.784 6.642 337.196 6.414C337.612 6.186 338.082 6.072 338.606 6.072C339.122 6.072 339.586 6.186 339.998 6.414C340.41 6.642 340.734 6.982 340.97 7.434C341.21 7.882 341.33 8.444 341.33 9.12C341.33 9.784 341.21 10.342 340.97 10.794C340.734 11.246 340.41 11.586 339.998 11.814C339.586 12.042 339.122 12.156 338.606 12.156ZM338.57 11.16C338.902 11.16 339.188 11.08 339.428 10.92C339.672 10.76 339.858 10.528 339.986 10.224C340.118 9.916 340.184 9.548 340.184 9.12C340.184 8.464 340.05 7.956 339.782 7.596C339.518 7.236 339.136 7.056 338.636 7.056C338.3 7.056 338.01 7.138 337.766 7.302C337.526 7.462 337.34 7.696 337.208 8.004C337.08 8.308 337.016 8.68 337.016 9.12C337.016 9.764 337.15 10.266 337.418 10.626C337.686 10.982 338.07 11.16 338.57 11.16ZM342.106 6.228H343.414L345.04 11.022H344.92L346.546 6.228H347.854L345.61 12H344.344L342.106 6.228ZM351.277 12.156C350.781 12.156 350.333 12.028 349.933 11.772C349.533 11.516 349.215 11.16 348.979 10.704C348.747 10.248 348.631 9.72 348.631 9.12C348.631 8.484 348.747 7.94 348.979 7.488C349.211 7.032 349.527 6.682 349.927 6.438C350.327 6.194 350.777 6.072 351.277 6.072C351.725 6.072 352.109 6.164 352.429 6.348C352.749 6.528 353.007 6.772 353.203 7.08C353.399 7.384 353.533 7.73 353.605 8.118C353.681 8.506 353.695 8.906 353.647 9.318H349.543V8.658H352.867L352.591 8.838C352.603 8.622 352.591 8.406 352.555 8.19C352.523 7.974 352.459 7.776 352.363 7.596C352.267 7.412 352.131 7.266 351.955 7.158C351.783 7.046 351.563 6.99 351.295 6.99C350.959 6.99 350.677 7.074 350.449 7.242C350.225 7.41 350.055 7.636 349.939 7.92C349.823 8.2 349.765 8.508 349.765 8.844V9.306C349.765 9.678 349.821 10.008 349.933 10.296C350.045 10.584 350.211 10.812 350.431 10.98C350.655 11.144 350.937 11.226 351.277 11.226C351.609 11.226 351.883 11.148 352.099 10.992C352.319 10.836 352.455 10.602 352.507 10.29H353.671C353.611 10.666 353.473 10.994 353.257 11.274C353.041 11.554 352.763 11.772 352.423 11.928C352.087 12.08 351.705 12.156 351.277 12.156ZM355.453 12V6.21H356.593V12H355.453ZM356.281 9.42C356.281 8.68 356.357 8.066 356.509 7.578C356.665 7.086 356.881 6.72 357.157 6.48C357.437 6.24 357.765 6.12 358.141 6.12C358.253 6.12 358.357 6.128 358.453 6.144C358.553 6.16 358.651 6.182 358.747 6.21L358.705 7.344C358.597 7.316 358.479 7.292 358.351 7.272C358.227 7.248 358.113 7.236 358.009 7.236C357.681 7.236 357.413 7.324 357.205 7.5C356.997 7.672 356.843 7.922 356.743 8.25C356.643 8.574 356.593 8.964 356.593 9.42H356.281Z" fill="black"/>
<rect x="281" y="133" width="24" height="16" fill="#D74646"/>
<rect x="307" y="133" width="24" height="16" fill="#D74646"/>
<rect x="333" y="133" width="24" height="16" fill="#2558DB"/>
<rect x="359" y="133" width="24" height="16" fill="#92D3F5"/>
<rect x="281" y="160" width="24" height="16" fill="#019658"/>
<rect x="307" y="160" width="24" height="16" fill="#E594D8"/>
<rect x="333" y="160" width="24" height="16" fill="#019658"/>
<rect x="359" y="160" width="24" height="16" fill="#CD9506"/>
<path d="M314.971 113V109.616C314.971 109.116 314.851 108.738 314.611 108.482C314.375 108.222 314.057 108.092 313.657 108.092C313.177 108.092 312.805 108.28 312.541 108.656C312.281 109.032 312.151 109.572 312.151 110.276H311.653C311.653 109.72 311.707 109.24 311.815 108.836C311.923 108.432 312.077 108.1 312.277 107.84C312.481 107.58 312.723 107.388 313.003 107.264C313.287 107.136 313.603 107.072 313.951 107.072C314.415 107.072 314.807 107.176 315.127 107.384C315.451 107.592 315.697 107.888 315.865 108.272C316.033 108.652 316.117 109.1 316.117 109.616V113H314.971ZM306.973 113V107.228H307.963L308.089 108.314C308.273 107.91 308.525 107.602 308.845 107.39C309.169 107.178 309.549 107.072 309.985 107.072C310.449 107.072 310.841 107.176 311.161 107.384C311.485 107.592 311.731 107.888 311.899 108.272C312.067 108.652 312.151 109.1 312.151 109.616V113H311.017V109.616C311.017 109.116 310.897 108.738 310.657 108.482C310.421 108.222 310.101 108.092 309.697 108.092C309.377 108.092 309.097 108.18 308.857 108.356C308.621 108.528 308.437 108.782 308.305 109.118C308.177 109.45 308.113 109.856 308.113 110.336V113H306.973ZM322.158 107.21H323.304V113H322.158V107.21ZM318.126 107.21H319.266V110.786C319.266 111.222 319.372 111.552 319.584 111.776C319.8 112 320.102 112.112 320.49 112.112C320.818 112.112 321.106 112.026 321.354 111.854C321.606 111.682 321.802 111.438 321.942 111.122C322.086 110.806 322.158 110.432 322.158 110H322.524C322.524 110.676 322.432 111.244 322.248 111.704C322.064 112.164 321.806 112.514 321.474 112.754C321.142 112.99 320.754 113.108 320.31 113.108C319.886 113.108 319.508 113.03 319.176 112.874C318.848 112.718 318.59 112.478 318.402 112.154C318.218 111.826 318.126 111.404 318.126 110.888V107.21ZM327.495 113.156C327.167 113.156 326.871 113.094 326.607 112.97C326.343 112.846 326.133 112.66 325.977 112.412C325.825 112.16 325.749 111.844 325.749 111.464V105.656H326.883V111.428C326.883 111.972 327.137 112.244 327.645 112.244C327.801 112.244 327.953 112.228 328.101 112.196C328.249 112.16 328.417 112.108 328.605 112.04L328.767 112.85C328.555 112.938 328.345 113.01 328.137 113.066C327.933 113.126 327.719 113.156 327.495 113.156ZM324.867 108.002V107.228H328.593V108.002H324.867ZM333.864 113L333.72 111.674V109.268C333.72 108.796 333.622 108.454 333.426 108.242C333.23 108.026 332.92 107.918 332.496 107.918C332.256 107.918 332.042 107.954 331.854 108.026C331.67 108.094 331.524 108.198 331.416 108.338C331.312 108.478 331.26 108.654 331.26 108.866H330C330 108.442 330.104 108.098 330.312 107.834C330.52 107.57 330.81 107.378 331.182 107.258C331.558 107.134 331.996 107.072 332.496 107.072C332.964 107.072 333.376 107.15 333.732 107.306C334.088 107.458 334.364 107.698 334.56 108.026C334.76 108.354 334.86 108.778 334.86 109.298V113H333.864ZM331.932 113.156C331.448 113.156 331.046 113.072 330.726 112.904C330.406 112.732 330.166 112.508 330.006 112.232C329.85 111.956 329.772 111.662 329.772 111.35C329.772 110.97 329.868 110.658 330.06 110.414C330.256 110.166 330.526 109.982 330.87 109.862C331.214 109.742 331.61 109.682 332.058 109.682C332.366 109.682 332.666 109.71 332.958 109.766C333.25 109.822 333.538 109.896 333.822 109.988V110.678C333.59 110.594 333.332 110.528 333.048 110.48C332.768 110.428 332.506 110.402 332.262 110.402C331.898 110.402 331.594 110.474 331.35 110.618C331.106 110.762 330.984 111.006 330.984 111.35C330.984 111.602 331.08 111.82 331.272 112.004C331.464 112.184 331.768 112.274 332.184 112.274C332.488 112.274 332.756 112.206 332.988 112.07C333.22 111.93 333.4 111.756 333.528 111.548C333.656 111.34 333.72 111.132 333.72 110.924H333.996C333.996 111.324 333.914 111.694 333.75 112.034C333.59 112.37 333.356 112.642 333.048 112.85C332.74 113.054 332.368 113.156 331.932 113.156ZM338.885 113.156C338.557 113.156 338.261 113.094 337.997 112.97C337.733 112.846 337.523 112.66 337.367 112.412C337.215 112.16 337.139 111.844 337.139 111.464V105.656H338.273V111.428C338.273 111.972 338.527 112.244 339.035 112.244C339.191 112.244 339.343 112.228 339.491 112.196C339.639 112.16 339.807 112.108 339.995 112.04L340.157 112.85C339.945 112.938 339.735 113.01 339.527 113.066C339.323 113.126 339.109 113.156 338.885 113.156ZM336.257 108.002V107.228H339.983V108.002H336.257ZM342.297 105.998C342.069 105.998 341.889 105.936 341.757 105.812C341.629 105.684 341.565 105.512 341.565 105.296C341.565 105.088 341.629 104.924 341.757 104.804C341.889 104.68 342.069 104.618 342.297 104.618C342.521 104.618 342.697 104.68 342.825 104.804C342.957 104.924 343.023 105.088 343.023 105.296C343.023 105.512 342.957 105.684 342.825 105.812C342.697 105.936 342.521 105.998 342.297 105.998ZM341.727 113V107.21H342.867V113H341.727ZM347.535 113.156C347.011 113.156 346.541 113.042 346.125 112.814C345.713 112.586 345.387 112.246 345.147 111.794C344.907 111.342 344.787 110.784 344.787 110.12C344.787 109.444 344.907 108.882 345.147 108.434C345.387 107.982 345.713 107.642 346.125 107.414C346.541 107.186 347.011 107.072 347.535 107.072C348.051 107.072 348.515 107.186 348.927 107.414C349.339 107.642 349.663 107.982 349.899 108.434C350.139 108.882 350.259 109.444 350.259 110.12C350.259 110.784 350.139 111.342 349.899 111.794C349.663 112.246 349.339 112.586 348.927 112.814C348.515 113.042 348.051 113.156 347.535 113.156ZM347.499 112.16C347.831 112.16 348.117 112.08 348.357 111.92C348.601 111.76 348.787 111.528 348.915 111.224C349.047 110.916 349.113 110.548 349.113 110.12C349.113 109.464 348.979 108.956 348.711 108.596C348.447 108.236 348.065 108.056 347.565 108.056C347.229 108.056 346.939 108.138 346.695 108.302C346.455 108.462 346.269 108.696 346.137 109.004C346.009 109.308 345.945 109.68 345.945 110.12C345.945 110.764 346.079 111.266 346.347 111.626C346.615 111.982 346.999 112.16 347.499 112.16ZM356.064 113V109.616C356.064 109.116 355.944 108.738 355.704 108.482C355.468 108.222 355.148 108.092 354.744 108.092C354.424 108.092 354.144 108.18 353.904 108.356C353.668 108.528 353.484 108.782 353.352 109.118C353.224 109.45 353.16 109.856 353.16 110.336H352.752C352.752 109.628 352.842 109.032 353.022 108.548C353.206 108.064 353.468 107.698 353.808 107.45C354.148 107.198 354.556 107.072 355.032 107.072C355.496 107.072 355.888 107.176 356.208 107.384C356.532 107.592 356.778 107.888 356.946 108.272C357.114 108.652 357.198 109.1 357.198 109.616V113H356.064ZM352.02 113V107.228H353.01L353.16 108.476V113H352.02Z" fill="black"/>
<rect x="52" y="120" width="24" height="16" fill="#D74646"/>
<rect x="78" y="120" width="24" height="16" fill="#D74646"/>
<rect x="104" y="120" width="24" height="16" fill="#2558DB"/>
<rect x="130" y="120" width="24" height="16" fill="#92D3F5"/>
<rect x="52" y="138" width="24" height="16" fill="#019658"/>
<rect x="78" y="138" width="24" height="16" fill="#E594D8"/>
<rect x="104" y="138" width="24" height="16" fill="#019658"/>
<rect x="130" y="138" width="24" height="16" fill="#CD9506"/>
<rect x="52" y="156" width="24" height="16" fill="#D74646"/>
<rect x="78" y="156" width="24" height="16" fill="#D74646"/>
<rect x="104" y="156" width="24" height="16" fill="#D74646"/>
<rect x="130" y="156" width="24" height="16" fill="#019658"/>
<rect x="52" y="174" width="24" height="16" fill="#CD9506"/>
<rect x="78" y="174" width="24" height="16" fill="#019658"/>
<rect x="104" y="174" width="24" height="16" fill="#CD9506"/>
<rect x="130" y="174" width="24" height="16" fill="#92D3F5"/>
<path d="M76.6795 114.156C76.1835 114.156 75.7355 114.028 75.3355 113.772C74.9355 113.516 74.6175 113.16 74.3815 112.704C74.1495 112.248 74.0335 111.72 74.0335 111.12C74.0335 110.484 74.1495 109.94 74.3815 109.488C74.6135 109.032 74.9295 108.682 75.3295 108.438C75.7295 108.194 76.1795 108.072 76.6795 108.072C77.1275 108.072 77.5115 108.164 77.8315 108.348C78.1515 108.528 78.4095 108.772 78.6055 109.08C78.8015 109.384 78.9355 109.73 79.0075 110.118C79.0835 110.506 79.0975 110.906 79.0495 111.318H74.9455V110.658H78.2695L77.9935 110.838C78.0055 110.622 77.9935 110.406 77.9575 110.19C77.9255 109.974 77.8615 109.776 77.7655 109.596C77.6695 109.412 77.5335 109.266 77.3575 109.158C77.1855 109.046 76.9655 108.99 76.6975 108.99C76.3615 108.99 76.0795 109.074 75.8515 109.242C75.6275 109.41 75.4575 109.636 75.3415 109.92C75.2255 110.2 75.1675 110.508 75.1675 110.844V111.306C75.1675 111.678 75.2235 112.008 75.3355 112.296C75.4475 112.584 75.6135 112.812 75.8335 112.98C76.0575 113.144 76.3395 113.226 76.6795 113.226C77.0115 113.226 77.2855 113.148 77.5015 112.992C77.7215 112.836 77.8575 112.602 77.9095 112.29H79.0735C79.0135 112.666 78.8755 112.994 78.6595 113.274C78.4435 113.554 78.1655 113.772 77.8255 113.928C77.4895 114.08 77.1075 114.156 76.6795 114.156ZM79.8715 108.228H81.1795L82.8055 113.022H82.6855L84.3115 108.228H85.6195L83.3755 114H82.1095L79.8715 108.228ZM90.5907 114L90.4467 112.674V110.268C90.4467 109.796 90.3487 109.454 90.1527 109.242C89.9567 109.026 89.6467 108.918 89.2227 108.918C88.9827 108.918 88.7687 108.954 88.5807 109.026C88.3967 109.094 88.2507 109.198 88.1427 109.338C88.0387 109.478 87.9867 109.654 87.9867 109.866H86.7267C86.7267 109.442 86.8307 109.098 87.0387 108.834C87.2467 108.57 87.5367 108.378 87.9087 108.258C88.2847 108.134 88.7227 108.072 89.2227 108.072C89.6907 108.072 90.1027 108.15 90.4587 108.306C90.8147 108.458 91.0907 108.698 91.2867 109.026C91.4867 109.354 91.5867 109.778 91.5867 110.298V114H90.5907ZM88.6587 114.156C88.1747 114.156 87.7727 114.072 87.4527 113.904C87.1327 113.732 86.8927 113.508 86.7327 113.232C86.5767 112.956 86.4987 112.662 86.4987 112.35C86.4987 111.97 86.5947 111.658 86.7867 111.414C86.9827 111.166 87.2527 110.982 87.5967 110.862C87.9407 110.742 88.3367 110.682 88.7847 110.682C89.0927 110.682 89.3927 110.71 89.6847 110.766C89.9767 110.822 90.2647 110.896 90.5487 110.988V111.678C90.3167 111.594 90.0587 111.528 89.7747 111.48C89.4947 111.428 89.2327 111.402 88.9887 111.402C88.6247 111.402 88.3207 111.474 88.0767 111.618C87.8327 111.762 87.7107 112.006 87.7107 112.35C87.7107 112.602 87.8067 112.82 87.9987 113.004C88.1907 113.184 88.4947 113.274 88.9107 113.274C89.2147 113.274 89.4827 113.206 89.7147 113.07C89.9467 112.93 90.1267 112.756 90.2547 112.548C90.3827 112.34 90.4467 112.132 90.4467 111.924H90.7227C90.7227 112.324 90.6407 112.694 90.4767 113.034C90.3167 113.37 90.0827 113.642 89.7747 113.85C89.4667 114.054 89.0947 114.156 88.6587 114.156ZM93.7579 114V105.798H94.8979V114H93.7579ZM101.126 108.21H102.272V114H101.126V108.21ZM97.0944 108.21H98.2344V111.786C98.2344 112.222 98.3404 112.552 98.5524 112.776C98.7684 113 99.0704 113.112 99.4584 113.112C99.7864 113.112 100.074 113.026 100.322 112.854C100.574 112.682 100.77 112.438 100.91 112.122C101.054 111.806 101.126 111.432 101.126 111H101.492C101.492 111.676 101.4 112.244 101.216 112.704C101.032 113.164 100.774 113.514 100.442 113.754C100.11 113.99 99.7224 114.108 99.2784 114.108C98.8544 114.108 98.4764 114.03 98.1444 113.874C97.8164 113.718 97.5584 113.478 97.3704 113.154C97.1864 112.826 97.0944 112.404 97.0944 111.888V108.21ZM108.227 114L108.083 112.674V110.268C108.083 109.796 107.985 109.454 107.789 109.242C107.593 109.026 107.283 108.918 106.859 108.918C106.619 108.918 106.405 108.954 106.217 109.026C106.033 109.094 105.887 109.198 105.779 109.338C105.675 109.478 105.623 109.654 105.623 109.866H104.363C104.363 109.442 104.467 109.098 104.675 108.834C104.883 108.57 105.173 108.378 105.545 108.258C105.921 108.134 106.359 108.072 106.859 108.072C107.327 108.072 107.739 108.15 108.095 108.306C108.451 108.458 108.727 108.698 108.923 109.026C109.123 109.354 109.223 109.778 109.223 110.298V114H108.227ZM106.295 114.156C105.811 114.156 105.409 114.072 105.089 113.904C104.769 113.732 104.529 113.508 104.369 113.232C104.213 112.956 104.135 112.662 104.135 112.35C104.135 111.97 104.231 111.658 104.423 111.414C104.619 111.166 104.889 110.982 105.233 110.862C105.577 110.742 105.973 110.682 106.421 110.682C106.729 110.682 107.029 110.71 107.321 110.766C107.613 110.822 107.901 110.896 108.185 110.988V111.678C107.953 111.594 107.695 111.528 107.411 111.48C107.131 111.428 106.869 111.402 106.625 111.402C106.261 111.402 105.957 111.474 105.713 111.618C105.469 111.762 105.347 112.006 105.347 112.35C105.347 112.602 105.443 112.82 105.635 113.004C105.827 113.184 106.131 113.274 106.547 113.274C106.851 113.274 107.119 113.206 107.351 113.07C107.583 112.93 107.763 112.756 107.891 112.548C108.019 112.34 108.083 112.132 108.083 111.924H108.359C108.359 112.324 108.277 112.694 108.113 113.034C107.953 113.37 107.719 113.642 107.411 113.85C107.103 114.054 106.731 114.156 106.295 114.156ZM113.249 114.156C112.921 114.156 112.625 114.094 112.361 113.97C112.097 113.846 111.887 113.66 111.731 113.412C111.579 113.16 111.503 112.844 111.503 112.464V106.656H112.637V112.428C112.637 112.972 112.891 113.244 113.399 113.244C113.555 113.244 113.707 113.228 113.855 113.196C114.003 113.16 114.171 113.108 114.359 113.04L114.521 113.85C114.309 113.938 114.099 114.01 113.891 114.066C113.687 114.126 113.473 114.156 113.249 114.156ZM110.621 109.002V108.228H114.347V109.002H110.621ZM116.66 106.998C116.432 106.998 116.252 106.936 116.12 106.812C115.992 106.684 115.928 106.512 115.928 106.296C115.928 106.088 115.992 105.924 116.12 105.804C116.252 105.68 116.432 105.618 116.66 105.618C116.884 105.618 117.06 105.68 117.188 105.804C117.32 105.924 117.386 106.088 117.386 106.296C117.386 106.512 117.32 106.684 117.188 106.812C117.06 106.936 116.884 106.998 116.66 106.998ZM116.09 114V108.21H117.23V114H116.09ZM121.899 114.156C121.375 114.156 120.905 114.042 120.489 113.814C120.077 113.586 119.751 113.246 119.511 112.794C119.271 112.342 119.151 111.784 119.151 111.12C119.151 110.444 119.271 109.882 119.511 109.434C119.751 108.982 120.077 108.642 120.489 108.414C120.905 108.186 121.375 108.072 121.899 108.072C122.415 108.072 122.879 108.186 123.291 108.414C123.703 108.642 124.027 108.982 124.263 109.434C124.503 109.882 124.623 110.444 124.623 111.12C124.623 111.784 124.503 112.342 124.263 112.794C124.027 113.246 123.703 113.586 123.291 113.814C122.879 114.042 122.415 114.156 121.899 114.156ZM121.863 113.16C122.195 113.16 122.481 113.08 122.721 112.92C122.965 112.76 123.151 112.528 123.279 112.224C123.411 111.916 123.477 111.548 123.477 111.12C123.477 110.464 123.343 109.956 123.075 109.596C122.811 109.236 122.429 109.056 121.929 109.056C121.593 109.056 121.303 109.138 121.059 109.302C120.819 109.462 120.633 109.696 120.501 110.004C120.373 110.308 120.309 110.68 120.309 111.12C120.309 111.764 120.443 112.266 120.711 112.626C120.979 112.982 121.363 113.16 121.863 113.16ZM130.427 114V110.616C130.427 110.116 130.307 109.738 130.067 109.482C129.831 109.222 129.511 109.092 129.107 109.092C128.787 109.092 128.507 109.18 128.267 109.356C128.031 109.528 127.847 109.782 127.715 110.118C127.587 110.45 127.523 110.856 127.523 111.336H127.115C127.115 110.628 127.205 110.032 127.385 109.548C127.569 109.064 127.831 108.698 128.171 108.45C128.511 108.198 128.919 108.072 129.395 108.072C129.859 108.072 130.251 108.176 130.571 108.384C130.895 108.592 131.141 108.888 131.309 109.272C131.477 109.652 131.561 110.1 131.561 110.616V114H130.427ZM126.383 114V108.228H127.373L127.523 109.476V114H126.383Z" fill="black"/>
<path d="M167.528 153.002L167.582 152.228H170.768L170.714 153.002H167.528ZM166.448 160.484L166.724 159.596C166.832 159.632 166.942 159.662 167.054 159.686C167.166 159.71 167.274 159.722 167.378 159.722C167.502 159.722 167.624 159.698 167.744 159.65C167.864 159.606 167.966 159.524 168.05 159.404C168.134 159.284 168.184 159.114 168.2 158.894L168.722 151.418C168.75 151.018 168.848 150.694 169.016 150.446C169.188 150.194 169.406 150.008 169.67 149.888C169.938 149.768 170.228 149.708 170.54 149.708C170.712 149.708 170.89 149.72 171.074 149.744C171.262 149.768 171.444 149.804 171.62 149.852L171.332 150.74C171.224 150.7 171.114 150.668 171.002 150.644C170.894 150.62 170.786 150.608 170.678 150.608C170.558 150.608 170.438 150.632 170.318 150.68C170.202 150.724 170.102 150.806 170.018 150.926C169.934 151.046 169.882 151.216 169.862 151.436L169.346 158.912C169.318 159.308 169.216 159.632 169.04 159.884C168.868 160.14 168.65 160.328 168.386 160.448C168.122 160.568 167.834 160.628 167.522 160.628C167.35 160.628 167.172 160.614 166.988 160.586C166.804 160.562 166.624 160.528 166.448 160.484Z" fill="black"/>
<g opacity="0.6">
<mask id="path-60-inside-1_29_323" fill="white">
<path fill-rule="evenodd" clip-rule="evenodd" d="M175.2 48C174.08 48 173.52 48 173.092 48.218C172.716 48.4097 172.41 48.7157 172.218 49.092C172 49.5198 172 50.0799 172 51.2L172 55.8C172 56.9201 172 57.4801 172.218 57.908C172.41 58.2843 172.716 58.5903 173.092 58.782C173.52 59 174.08 59 175.2 59L178.871 59C179.943 59 180.479 59 180.893 59.2003C181.297 59.3964 181.624 59.7231 181.82 60.1276C182.02 60.5408 182.02 61.077 182.02 62.1494V62.1494C182.02 63.9992 182.02 64.9241 182.391 65.4449C182.752 65.9513 183.327 66.2611 183.949 66.2833C184.588 66.3062 185.36 65.7969 186.904 64.7783L199.951 56.1711C201.303 55.2792 201.979 54.8332 202.214 54.2697C202.419 53.7771 202.419 53.2229 202.214 52.7303C201.979 52.1667 201.303 51.7208 199.951 50.8289L186.904 42.2217C185.36 41.2031 184.588 40.6938 183.949 40.7167C183.327 40.7389 182.752 41.0487 182.391 41.555C182.02 42.0759 182.02 43.0008 182.02 44.8506V44.8506C182.02 45.923 182.02 46.4592 181.82 46.8724C181.624 47.2769 181.297 47.6036 180.893 47.7997C180.479 48 179.943 48 178.871 48L175.2 48Z"/>
</mask>
<path fill-rule="evenodd" clip-rule="evenodd" d="M175.2 48C174.08 48 173.52 48 173.092 48.218C172.716 48.4097 172.41 48.7157 172.218 49.092C172 49.5198 172 50.0799 172 51.2L172 55.8C172 56.9201 172 57.4801 172.218 57.908C172.41 58.2843 172.716 58.5903 173.092 58.782C173.52 59 174.08 59 175.2 59L178.871 59C179.943 59 180.479 59 180.893 59.2003C181.297 59.3964 181.624 59.7231 181.82 60.1276C182.02 60.5408 182.02 61.077 182.02 62.1494V62.1494C182.02 63.9992 182.02 64.9241 182.391 65.4449C182.752 65.9513 183.327 66.2611 183.949 66.2833C184.588 66.3062 185.36 65.7969 186.904 64.7783L199.951 56.1711C201.303 55.2792 201.979 54.8332 202.214 54.2697C202.419 53.7771 202.419 53.2229 202.214 52.7303C201.979 52.1667 201.303 51.7208 199.951 50.8289L186.904 42.2217C185.36 41.2031 184.588 40.6938 183.949 40.7167C183.327 40.7389 182.752 41.0487 182.391 41.555C182.02 42.0759 182.02 43.0008 182.02 44.8506V44.8506C182.02 45.923 182.02 46.4592 181.82 46.8724C181.624 47.2769 181.297 47.6036 180.893 47.7997C180.479 48 179.943 48 178.871 48L175.2 48Z" fill="#D9D9D9"/>
<path d="M181.82 46.8724L180.02 46L181.82 46.8724ZM180.893 47.7997L180.02 46L180.893 47.7997ZM183.949 40.7167L183.877 38.7179L183.949 40.7167ZM182.391 41.555L184.02 42.7154L182.391 41.555ZM202.214 54.2697L200.368 53.5L202.214 54.2697ZM202.214 52.7303L200.368 53.5L202.214 52.7303ZM182.391 65.4449L184.02 64.2846L182.391 65.4449ZM186.904 64.7783L188.005 66.4477L186.904 64.7783ZM183.949 66.2833L184.02 64.2846L183.949 66.2833ZM180.893 59.2003L181.765 57.4006L180.893 59.2003ZM181.82 60.1276L180.02 61L181.82 60.1276ZM172.218 49.092L174 50L172.218 49.092ZM173.092 48.218L174 50L173.092 48.218ZM172.218 57.908L170.436 58.816L172.218 57.908ZM173.092 58.782L172.184 60.564L173.092 58.782ZM174 55.8L174 51.2L170 51.2L170 55.8L174 55.8ZM178.871 57L175.2 57L175.2 61L178.871 61L178.871 57ZM188.005 66.4477L201.052 57.8406L198.85 54.5017L185.803 63.1088L188.005 66.4477ZM201.052 49.1594L188.005 40.5523L185.803 43.8912L198.85 52.4983L201.052 49.1594ZM175.2 50L178.871 50L178.871 46L175.2 46L175.2 50ZM180.02 44.8506C180.02 45.4184 180.019 45.729 180.001 45.9526C179.985 46.1542 179.966 46.1116 180.02 46L183.62 47.7448C183.874 47.2199 183.955 46.7026 183.989 46.2648C184.022 45.8489 184.02 45.3552 184.02 44.8506L180.02 44.8506ZM178.871 50C179.375 50 179.869 50.0014 180.285 49.9688C180.723 49.9346 181.24 49.8538 181.765 49.5994L180.02 46C180.132 45.9459 180.174 45.9653 179.973 45.9811C179.749 45.9986 179.439 46 178.871 46L178.871 50ZM180.02 46V46L181.765 49.5994C182.574 49.2072 183.227 48.5539 183.62 47.7448L180.02 46ZM188.005 40.5523C187.265 40.0639 186.599 39.6227 186.038 39.3191C185.493 39.0249 184.748 38.6868 183.877 38.7179L184.02 42.7154C183.788 42.7237 183.749 42.6288 184.136 42.8381C184.506 43.0381 184.999 43.3609 185.803 43.8912L188.005 40.5523ZM184.02 44.8506C184.02 43.8877 184.022 43.2987 184.059 42.8796C184.097 42.4411 184.155 42.5263 184.02 42.7154L180.762 40.3947C180.257 41.1046 180.128 41.9127 180.074 42.5293C180.018 43.1653 180.02 43.9637 180.02 44.8506L184.02 44.8506ZM183.877 38.7179C182.635 38.7624 181.484 39.3821 180.762 40.3947L184.02 42.7154H184.02L183.877 38.7179ZM201.052 57.8406C201.696 57.4158 202.294 57.0236 202.75 56.66C203.207 56.2943 203.749 55.7859 204.06 55.0394L200.368 53.5C200.444 53.3171 200.53 53.3134 200.253 53.5345C199.974 53.7577 199.558 54.0345 198.85 54.5017L201.052 57.8406ZM198.85 52.4983C199.558 52.9655 199.974 53.2423 200.253 53.4655C200.53 53.6866 200.444 53.6829 200.368 53.5L204.06 51.9606C203.749 51.2141 203.207 50.7057 202.75 50.34C202.294 49.9763 201.696 49.5842 201.052 49.1594L198.85 52.4983ZM204.06 55.0394C204.471 54.0542 204.471 52.9457 204.06 51.9606L200.368 53.5V53.5L204.06 55.0394ZM180.02 62.1494C180.02 63.0363 180.018 63.8346 180.074 64.4707C180.128 65.0873 180.257 65.8953 180.762 66.6053L184.02 64.2846C184.155 64.4737 184.097 64.5589 184.059 64.1204C184.022 63.7013 184.02 63.1123 184.02 62.1494L180.02 62.1494ZM185.803 63.1088C184.999 63.639 184.506 63.9618 184.136 64.1619C183.749 64.3712 183.788 64.2763 184.02 64.2846L183.877 68.282C184.748 68.3132 185.493 67.9751 186.038 67.6808C186.599 67.3773 187.265 66.9361 188.005 66.4477L185.803 63.1088ZM180.762 66.6053C181.484 67.6179 182.635 68.2376 183.877 68.282L184.02 64.2846V64.2846L180.762 66.6053ZM178.871 61C179.439 61 179.749 61.0014 179.973 61.0189C180.174 61.0347 180.132 61.0541 180.02 61L181.765 57.4006C181.24 57.1462 180.723 57.0654 180.285 57.0311C179.869 56.9986 179.375 57 178.871 57L178.871 61ZM184.02 62.1494C184.02 61.6448 184.022 61.1511 183.989 60.7352C183.955 60.2973 183.874 59.78 183.62 59.2552L180.02 61C179.966 60.8884 179.985 60.8458 180.001 61.0474C180.019 61.271 180.02 61.5816 180.02 62.1494L184.02 62.1494ZM180.02 61V61L183.62 59.2552C183.227 58.4461 182.574 57.7928 181.765 57.4006L180.02 61ZM174 51.2C174 50.6069 174.002 50.2824 174.021 50.0493C174.038 49.8394 174.059 49.885 174 50L170.436 48.184C170.159 48.7269 170.071 49.2663 170.034 49.7235C169.998 50.1574 170 50.6729 170 51.2L174 51.2ZM175.2 46C174.673 46 174.157 45.9984 173.724 46.0339C173.266 46.0712 172.727 46.1594 172.184 46.436L174 50C173.885 50.0586 173.839 50.0377 174.049 50.0206C174.282 50.0015 174.607 50 175.2 50L175.2 46ZM174 50V50L172.184 46.436C171.431 46.8195 170.819 47.4314 170.436 48.184L174 50ZM170 55.8C170 56.327 169.998 56.8426 170.034 57.2764C170.071 57.7336 170.159 58.2731 170.436 58.816L174 57C174.059 57.115 174.038 57.1605 174.021 56.9507C174.002 56.7176 174 56.393 174 55.8L170 55.8ZM175.2 57C174.607 57 174.282 56.9984 174.049 56.9794C173.839 56.9622 173.885 56.9414 174 57L172.184 60.564C172.727 60.8406 173.266 60.9287 173.724 60.9661C174.157 61.0015 174.673 61 175.2 61L175.2 57ZM170.436 58.816C170.819 59.5686 171.431 60.1805 172.184 60.564L174 57V57L170.436 58.816Z" fill="#A7A7A7" mask="url(#path-60-inside-1_29_323)"/>
</g>
<g opacity="0.6">
<mask id="path-62-inside-2_29_323" fill="white">
<path fill-rule="evenodd" clip-rule="evenodd" d="M236.168 148.716C237.288 148.716 237.848 148.716 238.276 148.934C238.652 149.126 238.958 149.432 239.15 149.808C239.368 150.236 239.368 150.796 239.368 151.916L239.368 156.516C239.368 157.636 239.368 158.196 239.15 158.624C238.958 159 238.652 159.306 238.276 159.498C237.848 159.716 237.288 159.716 236.168 159.716L232.497 159.716C231.425 159.716 230.889 159.716 230.475 159.916C230.071 160.112 229.744 160.439 229.548 160.844C229.348 161.257 229.348 161.793 229.348 162.865V162.865C229.348 164.715 229.348 165.64 228.977 166.161C228.616 166.667 228.041 166.977 227.419 166.999C226.78 167.022 226.008 166.513 224.464 165.494L211.417 156.887C210.065 155.995 209.389 155.549 209.154 154.986C208.949 154.493 208.949 153.939 209.154 153.446C209.389 152.883 210.065 152.437 211.417 151.545L224.464 142.938C226.008 141.919 226.78 141.41 227.419 141.433C228.041 141.455 228.616 141.765 228.977 142.271C229.348 142.792 229.348 143.717 229.348 145.567V145.567C229.348 146.639 229.348 147.175 229.548 147.588C229.744 147.993 230.071 148.32 230.475 148.516C230.889 148.716 231.425 148.716 232.497 148.716L236.168 148.716Z"/>
</mask>
<path fill-rule="evenodd" clip-rule="evenodd" d="M236.168 148.716C237.288 148.716 237.848 148.716 238.276 148.934C238.652 149.126 238.958 149.432 239.15 149.808C239.368 150.236 239.368 150.796 239.368 151.916L239.368 156.516C239.368 157.636 239.368 158.196 239.15 158.624C238.958 159 238.652 159.306 238.276 159.498C237.848 159.716 237.288 159.716 236.168 159.716L232.497 159.716C231.425 159.716 230.889 159.716 230.475 159.916C230.071 160.112 229.744 160.439 229.548 160.844C229.348 161.257 229.348 161.793 229.348 162.865V162.865C229.348 164.715 229.348 165.64 228.977 166.161C228.616 166.667 228.041 166.977 227.419 166.999C226.78 167.022 226.008 166.513 224.464 165.494L211.417 156.887C210.065 155.995 209.389 155.549 209.154 154.986C208.949 154.493 208.949 153.939 209.154 153.446C209.389 152.883 210.065 152.437 211.417 151.545L224.464 142.938C226.008 141.919 226.78 141.41 227.419 141.433C228.041 141.455 228.616 141.765 228.977 142.271C229.348 142.792 229.348 143.717 229.348 145.567V145.567C229.348 146.639 229.348 147.175 229.548 147.588C229.744 147.993 230.071 148.32 230.475 148.516C230.889 148.716 231.425 148.716 232.497 148.716L236.168 148.716Z" fill="#D9D9D9"/>
<path d="M229.548 147.588L231.348 146.716L229.548 147.588ZM230.475 148.516L231.348 146.716L230.475 148.516ZM227.419 141.433L227.491 139.434L227.419 141.433ZM228.977 142.271L227.348 143.431L228.977 142.271ZM209.154 154.986L211 154.216L209.154 154.986ZM209.154 153.446L211 154.216L209.154 153.446ZM228.977 166.161L227.348 165.001L228.977 166.161ZM224.464 165.494L223.363 167.164L224.464 165.494ZM227.419 166.999L227.348 165.001L227.419 166.999ZM230.475 159.916L229.603 158.117L230.475 159.916ZM229.548 160.844L231.348 161.716L229.548 160.844ZM239.15 149.808L237.368 150.716L239.15 149.808ZM238.276 148.934L237.368 150.716L238.276 148.934ZM239.15 158.624L240.932 159.532L239.15 158.624ZM238.276 159.498L239.184 161.28L238.276 159.498ZM237.368 156.516L237.368 151.916L241.368 151.916L241.368 156.516L237.368 156.516ZM232.497 157.716L236.168 157.716L236.168 161.716L232.497 161.716L232.497 157.716ZM223.363 167.164L210.316 158.557L212.518 155.218L225.566 163.825L223.363 167.164ZM210.316 149.875L223.363 141.268L225.566 144.607L212.518 153.214L210.316 149.875ZM236.168 150.716L232.497 150.716L232.497 146.716L236.168 146.716L236.168 150.716ZM231.348 145.567C231.348 146.134 231.349 146.445 231.367 146.668C231.383 146.87 231.402 146.828 231.348 146.716L227.748 148.461C227.494 147.936 227.413 147.419 227.379 146.981C227.346 146.565 227.348 146.071 227.348 145.567L231.348 145.567ZM232.497 150.716C231.993 150.716 231.499 150.717 231.083 150.685C230.645 150.651 230.128 150.57 229.603 150.315L231.348 146.716C231.236 146.662 231.194 146.681 231.395 146.697C231.619 146.715 231.929 146.716 232.497 146.716L232.497 150.716ZM231.348 146.716V146.716L229.603 150.315C228.794 149.923 228.141 149.27 227.748 148.461L231.348 146.716ZM223.363 141.268C224.103 140.78 224.769 140.339 225.33 140.035C225.875 139.741 226.62 139.403 227.491 139.434L227.348 143.431C227.58 143.44 227.619 143.345 227.232 143.554C226.862 143.754 226.369 144.077 225.566 144.607L223.363 141.268ZM227.348 145.567C227.348 144.604 227.346 144.015 227.309 143.596C227.271 143.157 227.213 143.242 227.348 143.431L230.606 141.111C231.112 141.821 231.24 142.629 231.294 143.245C231.35 143.881 231.348 144.68 231.348 145.567L227.348 145.567ZM227.491 139.434C228.733 139.478 229.885 140.098 230.606 141.111L227.348 143.431L227.348 143.431L227.491 139.434ZM210.316 158.557C209.672 158.132 209.074 157.74 208.619 157.376C208.161 157.01 207.619 156.502 207.308 155.755L211 154.216C210.924 154.033 210.838 154.029 211.115 154.25C211.394 154.474 211.81 154.75 212.518 155.218L210.316 158.557ZM212.518 153.214C211.81 153.681 211.394 153.958 211.115 154.181C210.838 154.403 210.924 154.399 211 154.216L207.308 152.676C207.619 151.93 208.161 151.422 208.619 151.056C209.074 150.692 209.672 150.3 210.316 149.875L212.518 153.214ZM207.308 155.755C206.897 154.77 206.897 153.662 207.308 152.676L211 154.216V154.216L207.308 155.755ZM231.348 162.865C231.348 163.752 231.35 164.551 231.294 165.187C231.24 165.803 231.112 166.611 230.606 167.321L227.348 165.001C227.213 165.19 227.271 165.275 227.309 164.836C227.346 164.417 227.348 163.828 227.348 162.865L231.348 162.865ZM225.566 163.825C226.369 164.355 226.862 164.678 227.232 164.878C227.619 165.087 227.58 164.992 227.348 165.001L227.491 168.998C226.62 169.029 225.875 168.691 225.33 168.397C224.769 168.093 224.103 167.652 223.363 167.164L225.566 163.825ZM230.606 167.321C229.885 168.334 228.733 168.954 227.491 168.998L227.348 165.001V165.001L230.606 167.321ZM232.497 161.716C231.929 161.716 231.619 161.717 231.395 161.735C231.194 161.751 231.236 161.77 231.348 161.716L229.603 158.117C230.128 157.862 230.645 157.781 231.083 157.747C231.499 157.715 231.993 157.716 232.497 157.716L232.497 161.716ZM227.348 162.865C227.348 162.361 227.346 161.867 227.379 161.451C227.413 161.013 227.494 160.496 227.748 159.971L231.348 161.716C231.402 161.604 231.383 161.562 231.367 161.763C231.349 161.987 231.348 162.298 231.348 162.865L227.348 162.865ZM231.348 161.716V161.716L227.748 159.971C228.141 159.162 228.794 158.509 229.603 158.117L231.348 161.716ZM237.368 151.916C237.368 151.323 237.366 150.998 237.347 150.765C237.33 150.555 237.309 150.601 237.368 150.716L240.932 148.9C241.209 149.443 241.297 149.982 241.334 150.439C241.37 150.873 241.368 151.389 241.368 151.916L237.368 151.916ZM236.168 146.716C236.695 146.716 237.211 146.714 237.645 146.75C238.102 146.787 238.641 146.875 239.184 147.152L237.368 150.716C237.483 150.775 237.529 150.754 237.319 150.737C237.086 150.717 236.761 150.716 236.168 150.716L236.168 146.716ZM237.368 150.716V150.716L239.184 147.152C239.937 147.535 240.549 148.147 240.932 148.9L237.368 150.716ZM241.368 156.516C241.368 157.043 241.37 157.559 241.334 157.992C241.297 158.45 241.209 158.989 240.932 159.532L237.368 157.716C237.309 157.831 237.33 157.876 237.347 157.667C237.366 157.433 237.368 157.109 237.368 156.516L241.368 156.516ZM236.168 157.716C236.761 157.716 237.086 157.714 237.319 157.695C237.529 157.678 237.483 157.657 237.368 157.716L239.184 161.28C238.641 161.557 238.102 161.645 237.645 161.682C237.211 161.717 236.695 161.716 236.168 161.716L236.168 157.716ZM240.932 159.532C240.549 160.285 239.937 160.896 239.184 161.28L237.368 157.716V157.716L240.932 159.532Z" fill="#A7A7A7" mask="url(#path-62-inside-2_29_323)"/>
</g>
<path opacity="0.6" d="M422.855 89.618L426.038 85.525C426.391 85.0719 426.614 84.7856 426.805 84.5819C426.983 84.3917 427.077 84.3358 427.139 84.3087C427.326 84.2277 427.595 84.2072 427.792 84.259C427.865 84.2781 427.962 84.3186 428.15 84.4647C428.355 84.6246 428.601 84.8555 428.995 85.2284C431.473 87.5719 435.43 91.6838 438.762 96.8152C442.1 101.957 444.754 108.036 444.754 114.333C444.754 128.659 435.545 137.934 429.131 142.655L429.111 142.669C428.793 142.904 428.524 143.102 428.313 143.274C428.097 143.45 427.887 143.643 427.718 143.88C427.218 144.581 427.047 145.396 427.224 146.239C427.323 146.713 427.597 147.185 427.916 147.735C427.939 147.776 427.963 147.817 427.987 147.859C428.342 148.474 428.583 148.892 428.742 149.215C428.905 149.547 428.924 149.668 428.925 149.698C428.949 150.117 428.709 150.506 428.323 150.673C428.296 150.685 428.179 150.722 427.809 150.725C427.449 150.727 426.967 150.699 426.259 150.657L410.133 149.695C409.306 149.646 408.753 149.612 408.344 149.55C407.936 149.488 407.813 149.416 407.77 149.384C407.558 149.222 407.419 148.982 407.385 148.717C407.378 148.664 407.378 148.521 407.528 148.137C407.679 147.751 407.926 147.256 408.297 146.514L415.437 132.247C415.795 131.533 416.039 131.048 416.246 130.701C416.458 130.345 416.564 130.259 416.593 130.24C416.908 130.032 417.314 130.02 417.641 130.208C417.672 130.226 417.782 130.306 418.015 130.648C418.243 130.982 418.515 131.452 418.914 132.144L418.933 132.176C419.186 132.616 419.406 132.995 419.612 133.295C419.83 133.611 420.078 133.907 420.42 134.135C421.209 134.663 422.295 134.782 423.179 134.436C423.554 134.29 423.851 134.069 424.125 133.817C424.379 133.583 424.656 133.28 424.97 132.937L424.996 132.908C428.858 128.688 433.254 122.176 433.254 114.333C433.254 109.676 431.542 105.218 429.439 101.488C427.333 97.7507 424.794 94.6752 423.049 92.764C422.658 92.3357 422.398 92.0502 422.216 91.8221C422.034 91.5942 421.992 91.4985 421.981 91.4643C421.914 91.2628 421.908 91.1177 421.959 90.9116C421.969 90.8702 422.002 90.7756 422.151 90.5548C422.302 90.3294 422.521 90.0474 422.855 89.618Z" fill="#D9D9D9" stroke="#A7A7A7" stroke-width="2"/>
<path opacity="0.6" d="M28.5992 67.7767L30.5051 72.599C30.705 73.105 30.8356 73.437 30.9177 73.6959C30.9982 73.9495 31.0035 74.0496 31.0016 74.0922C30.9923 74.3042 30.9461 74.4418 30.8255 74.6165C30.805 74.6462 30.7379 74.7262 30.4991 74.8938C30.26 75.0615 29.9303 75.2625 29.4347 75.5637C27.2234 76.908 23.9234 79.1469 20.8518 82.1422C17.7865 85.1314 14.8917 88.9293 13.5837 93.3993C11.3811 100.926 13.7709 108.41 16.2924 113.546L16.3091 113.58C16.5143 113.998 16.695 114.366 16.873 114.662C17.0649 114.981 17.2881 115.277 17.6066 115.523C18.3587 116.103 19.4336 116.294 20.3395 116.008C20.7317 115.885 21.0535 115.671 21.3513 115.428C21.6331 115.199 21.9502 114.896 22.3171 114.546L22.3443 114.52C22.922 113.968 23.3148 113.594 23.6274 113.337C23.9471 113.074 24.0753 113.028 24.1095 113.02C24.4765 112.931 24.8622 113.057 25.1067 113.344C25.1295 113.371 25.2061 113.484 25.3101 113.884C25.4118 114.276 25.5093 114.81 25.6518 115.596L28.4982 131.294C28.6461 132.11 28.7439 132.655 28.7805 133.067C28.817 133.478 28.7761 133.615 28.7546 133.664C28.6475 133.908 28.4471 134.1 28.1981 134.196C28.1481 134.215 28.0092 134.249 27.6006 134.194C27.1904 134.139 26.6507 134.016 25.8425 133.831L10.0961 130.225C9.40392 130.067 8.93392 129.959 8.58856 129.855C8.23479 129.749 8.13328 129.68 8.1099 129.661C7.78691 129.393 7.66547 128.952 7.80582 128.556C7.81598 128.528 7.86801 128.417 8.11751 128.144C8.36108 127.878 8.70944 127.545 9.22294 127.054C9.25768 127.021 9.2921 126.988 9.32617 126.956C9.78666 126.517 10.1818 126.141 10.4103 125.714C10.8168 124.955 10.8819 124.125 10.5988 123.311C10.503 123.036 10.3554 122.792 10.1977 122.562C10.0439 122.338 9.84144 122.073 9.60171 121.758L9.58662 121.739C4.75644 115.407 -1.47688 103.919 2.54636 90.1697C4.31502 84.1253 8.56924 79.0365 13.217 75.0393C17.8555 71.05 22.8081 68.2149 25.8443 66.6616C26.3274 66.4144 26.628 66.2618 26.8701 66.166C27.0912 66.0785 27.1961 66.067 27.2714 66.0691C27.4749 66.0746 27.7275 66.1699 27.8839 66.3001C27.9361 66.3436 28.0104 66.4235 28.1279 66.6562C28.2537 66.9052 28.3882 67.2428 28.5992 67.7767Z" fill="#D9D9D9" stroke="#A7A7A7" stroke-width="2"/>
</g>
<defs>
<clipPath id="clip0_29_323">
<rect width="445.499" height="190" fill="white" transform="translate(0.254517)"/>
</clipPath>
</defs>
</svg>
