<svg width="377" height="79" viewBox="0 0 377 79" fill="none" xmlns="http://www.w3.org/2000/svg">
<rect x="86.25" y="34.25" width="72.5" height="41.5" rx="4.75" fill="#F5F5F5"/>
<rect x="86.25" y="34.25" width="72.5" height="41.5" rx="4.75" stroke="#A7A7A7" stroke-width="0.5"/>
<path d="M102.709 52.13C102.276 52.13 101.878 52.0533 101.514 51.9C101.151 51.7433 100.858 51.5117 100.634 51.205C100.414 50.8983 100.299 50.515 100.289 50.055H101.219C101.219 50.3317 101.286 50.5583 101.419 50.735C101.556 50.9117 101.736 51.0433 101.959 51.13C102.183 51.2133 102.429 51.255 102.699 51.255C102.973 51.255 103.214 51.2133 103.424 51.13C103.634 51.0467 103.796 50.935 103.909 50.795C104.026 50.655 104.084 50.495 104.084 50.315C104.084 50.0717 104.009 49.8767 103.859 49.73C103.709 49.58 103.481 49.4533 103.174 49.35L101.989 48.91C101.479 48.72 101.091 48.5017 100.824 48.255C100.558 48.005 100.424 47.6583 100.424 47.215C100.424 46.7117 100.621 46.3033 101.014 45.99C101.408 45.6733 101.961 45.515 102.674 45.515C103.351 45.515 103.876 45.6717 104.249 45.985C104.626 46.2983 104.841 46.725 104.894 47.265H103.959C103.913 46.9917 103.784 46.775 103.574 46.615C103.368 46.455 103.068 46.375 102.674 46.375C102.294 46.375 101.998 46.4583 101.784 46.625C101.571 46.7883 101.464 46.995 101.464 47.245C101.464 47.4517 101.531 47.6167 101.664 47.74C101.801 47.8633 102.013 47.975 102.299 48.075L103.649 48.57C104.113 48.7333 104.474 48.9533 104.734 49.23C104.994 49.5067 105.124 49.8583 105.124 50.285C105.124 50.645 105.031 50.9633 104.844 51.24C104.658 51.5167 104.384 51.735 104.024 51.895C103.664 52.0517 103.226 52.13 102.709 52.13ZM110.011 47.175H110.966V52H110.011V47.175ZM106.651 47.175H107.601V50.155C107.601 50.5183 107.689 50.7933 107.866 50.98C108.046 51.1667 108.298 51.26 108.621 51.26C108.894 51.26 109.134 51.1883 109.341 51.045C109.551 50.9017 109.714 50.6983 109.831 50.435C109.951 50.1717 110.011 49.86 110.011 49.5H110.316C110.316 50.0633 110.239 50.5367 110.086 50.92C109.933 51.3033 109.718 51.595 109.441 51.795C109.164 51.9917 108.841 52.09 108.471 52.09C108.118 52.09 107.803 52.025 107.526 51.895C107.253 51.765 107.038 51.565 106.881 51.295C106.728 51.0217 106.651 50.67 106.651 50.24V47.175ZM112.913 52V47.175H113.863V52H112.913ZM113.603 49.85C113.603 49.2333 113.667 48.7217 113.793 48.315C113.923 47.905 114.103 47.6 114.333 47.4C114.567 47.2 114.84 47.1 115.153 47.1C115.247 47.1 115.333 47.1067 115.413 47.12C115.497 47.1333 115.578 47.1517 115.658 47.175L115.623 48.12C115.533 48.0967 115.435 48.0767 115.328 48.06C115.225 48.04 115.13 48.03 115.043 48.03C114.77 48.03 114.547 48.1033 114.373 48.25C114.2 48.3933 114.072 48.6017 113.988 48.875C113.905 49.145 113.863 49.47 113.863 49.85H113.603ZM116.654 52V47.175H117.604V52H116.654ZM117.344 49.85C117.344 49.2333 117.407 48.7217 117.534 48.315C117.664 47.905 117.844 47.6 118.074 47.4C118.307 47.2 118.58 47.1 118.894 47.1C118.987 47.1 119.074 47.1067 119.154 47.12C119.237 47.1333 119.319 47.1517 119.399 47.175L119.364 48.12C119.274 48.0967 119.175 48.0767 119.069 48.06C118.965 48.04 118.87 48.03 118.784 48.03C118.51 48.03 118.287 48.1033 118.114 48.25C117.94 48.3933 117.812 48.6017 117.729 48.875C117.645 49.145 117.604 49.47 117.604 49.85H117.344ZM122.204 52.13C121.767 52.13 121.376 52.035 121.029 51.845C120.686 51.655 120.414 51.3717 120.214 50.995C120.014 50.6183 119.914 50.1533 119.914 49.6C119.914 49.0367 120.014 48.5683 120.214 48.195C120.414 47.8183 120.686 47.535 121.029 47.345C121.376 47.155 121.767 47.06 122.204 47.06C122.634 47.06 123.021 47.155 123.364 47.345C123.707 47.535 123.977 47.8183 124.174 48.195C124.374 48.5683 124.474 49.0367 124.474 49.6C124.474 50.1533 124.374 50.6183 124.174 50.995C123.977 51.3717 123.707 51.655 123.364 51.845C123.021 52.035 122.634 52.13 122.204 52.13ZM122.174 51.3C122.451 51.3 122.689 51.2333 122.889 51.1C123.092 50.9667 123.247 50.7733 123.354 50.52C123.464 50.2633 123.519 49.9567 123.519 49.6C123.519 49.0533 123.407 48.63 123.184 48.33C122.964 48.03 122.646 47.88 122.229 47.88C121.949 47.88 121.707 47.9483 121.504 48.085C121.304 48.2183 121.149 48.4133 121.039 48.67C120.932 48.9233 120.879 49.2333 120.879 49.6C120.879 50.1367 120.991 50.555 121.214 50.855C121.437 51.1517 121.757 51.3 122.174 51.3ZM127.711 54.48C127.191 54.48 126.742 54.4083 126.366 54.265C125.992 54.1217 125.704 53.93 125.501 53.69C125.297 53.45 125.196 53.1883 125.196 52.905C125.196 52.545 125.327 52.2683 125.591 52.075C125.854 51.885 126.189 51.79 126.596 51.79L127.211 52.08C126.864 52.08 126.596 52.15 126.406 52.29C126.219 52.43 126.126 52.62 126.126 52.86C126.126 53.11 126.262 53.315 126.536 53.475C126.809 53.6383 127.201 53.72 127.711 53.72C128.081 53.72 128.406 53.665 128.686 53.555C128.966 53.4483 129.182 53.3067 129.336 53.13C129.489 52.9567 129.566 52.77 129.566 52.57C129.566 52.4333 129.516 52.3167 129.416 52.22C129.319 52.1267 129.171 52.08 128.971 52.08H127.211C126.884 52.08 126.596 52.03 126.346 51.93C126.099 51.8267 125.906 51.6917 125.766 51.525C125.626 51.3583 125.556 51.1733 125.556 50.97C125.556 50.77 125.612 50.5983 125.726 50.455C125.839 50.3083 125.989 50.1983 126.176 50.125C126.362 50.0483 126.567 50.01 126.791 50.01L127.006 50.34C126.909 50.34 126.812 50.3617 126.716 50.405C126.619 50.445 126.539 50.5067 126.476 50.59C126.412 50.6733 126.381 50.7767 126.381 50.9C126.381 51.0433 126.441 51.1633 126.561 51.26C126.684 51.3533 126.901 51.4 127.211 51.4H128.971C129.451 51.4 129.827 51.495 130.101 51.685C130.374 51.875 130.511 52.1517 130.511 52.515C130.511 52.845 130.397 53.16 130.171 53.46C129.944 53.76 129.621 54.005 129.201 54.195C128.784 54.385 128.287 54.48 127.711 54.48ZM127.816 50.555C127.442 50.555 127.102 50.4833 126.796 50.34C126.492 50.1933 126.251 49.99 126.071 49.73C125.891 49.4667 125.801 49.16 125.801 48.81C125.801 48.4567 125.891 48.15 126.071 47.89C126.251 47.6267 126.492 47.4233 126.796 47.28C127.102 47.1333 127.442 47.06 127.816 47.06C128.179 47.06 128.511 47.1333 128.811 47.28C129.114 47.4233 129.356 47.6267 129.536 47.89C129.719 48.15 129.811 48.4567 129.811 48.81C129.811 49.16 129.719 49.4667 129.536 49.73C129.356 49.99 129.114 50.1933 128.811 50.34C128.511 50.4833 128.179 50.555 127.816 50.555ZM127.816 49.885C128.159 49.885 128.421 49.7833 128.601 49.58C128.784 49.3733 128.876 49.1167 128.876 48.81C128.876 48.49 128.784 48.2317 128.601 48.035C128.421 47.8383 128.159 47.74 127.816 47.74C127.479 47.74 127.216 47.8383 127.026 48.035C126.839 48.2317 126.746 48.49 126.746 48.81C126.746 49.1167 126.839 49.3733 127.026 49.58C127.216 49.7833 127.479 49.885 127.816 49.885ZM129.451 47.83L129.006 47.615C129.006 47.3283 129.066 47.0783 129.186 46.865C129.306 46.6517 129.472 46.485 129.686 46.365C129.899 46.245 130.144 46.185 130.421 46.185L130.361 47.11C130.064 47.11 129.837 47.1683 129.681 47.285C129.527 47.4017 129.451 47.5833 129.451 47.83ZM134.678 52L134.558 50.895V48.89C134.558 48.4967 134.477 48.2117 134.313 48.035C134.15 47.855 133.892 47.765 133.538 47.765C133.338 47.765 133.16 47.795 133.003 47.855C132.85 47.9117 132.728 47.9983 132.638 48.115C132.552 48.2317 132.508 48.3783 132.508 48.555H131.458C131.458 48.2017 131.545 47.915 131.718 47.695C131.892 47.475 132.133 47.315 132.443 47.215C132.757 47.1117 133.122 47.06 133.538 47.06C133.928 47.06 134.272 47.125 134.568 47.255C134.865 47.3817 135.095 47.5817 135.258 47.855C135.425 48.1283 135.508 48.4817 135.508 48.915V52H134.678ZM133.068 52.13C132.665 52.13 132.33 52.06 132.063 51.92C131.797 51.7767 131.597 51.59 131.463 51.36C131.333 51.13 131.268 50.885 131.268 50.625C131.268 50.3083 131.348 50.0483 131.508 49.845C131.672 49.6383 131.897 49.485 132.183 49.385C132.47 49.285 132.8 49.235 133.173 49.235C133.43 49.235 133.68 49.2583 133.923 49.305C134.167 49.3517 134.407 49.4133 134.643 49.49V50.065C134.45 49.995 134.235 49.94 133.998 49.9C133.765 49.8567 133.547 49.835 133.343 49.835C133.04 49.835 132.787 49.895 132.583 50.015C132.38 50.135 132.278 50.3383 132.278 50.625C132.278 50.835 132.358 51.0167 132.518 51.17C132.678 51.32 132.932 51.395 133.278 51.395C133.532 51.395 133.755 51.3383 133.948 51.225C134.142 51.1083 134.292 50.9633 134.398 50.79C134.505 50.6167 134.558 50.4433 134.558 50.27H134.788C134.788 50.6033 134.72 50.9117 134.583 51.195C134.45 51.475 134.255 51.7017 133.998 51.875C133.742 52.045 133.432 52.13 133.068 52.13ZM138.863 52.13C138.589 52.13 138.343 52.0783 138.123 51.975C137.903 51.8717 137.728 51.7167 137.598 51.51C137.471 51.3 137.408 51.0367 137.408 50.72V45.88H138.353V50.69C138.353 51.1433 138.564 51.37 138.988 51.37C139.118 51.37 139.244 51.3567 139.368 51.33C139.491 51.3 139.631 51.2567 139.788 51.2L139.923 51.875C139.746 51.9483 139.571 52.0083 139.398 52.055C139.228 52.105 139.049 52.13 138.863 52.13ZM136.673 47.835V47.19H139.778V47.835H136.673ZM142.881 52.13C142.467 52.13 142.094 52.0233 141.761 51.81C141.427 51.5967 141.162 51.3 140.966 50.92C140.772 50.54 140.676 50.1 140.676 49.6C140.676 49.07 140.772 48.6167 140.966 48.24C141.159 47.86 141.422 47.5683 141.756 47.365C142.089 47.1617 142.464 47.06 142.881 47.06C143.254 47.06 143.574 47.1367 143.841 47.29C144.107 47.44 144.322 47.6433 144.486 47.9C144.649 48.1533 144.761 48.4417 144.821 48.765C144.884 49.0883 144.896 49.4217 144.856 49.765H141.436V49.215H144.206L143.976 49.365C143.986 49.185 143.976 49.005 143.946 48.825C143.919 48.645 143.866 48.48 143.786 48.33C143.706 48.1767 143.592 48.055 143.446 47.965C143.302 47.8717 143.119 47.825 142.896 47.825C142.616 47.825 142.381 47.895 142.191 48.035C142.004 48.175 141.862 48.3633 141.766 48.6C141.669 48.8333 141.621 49.09 141.621 49.37V49.755C141.621 50.065 141.667 50.34 141.761 50.58C141.854 50.82 141.992 51.01 142.176 51.15C142.362 51.2867 142.597 51.355 142.881 51.355C143.157 51.355 143.386 51.29 143.566 51.16C143.749 51.03 143.862 50.835 143.906 50.575H144.876C144.826 50.8883 144.711 51.1617 144.531 51.395C144.351 51.6283 144.119 51.81 143.836 51.94C143.556 52.0667 143.237 52.13 142.881 52.13ZM115.599 64V61.18C115.599 60.7633 115.499 60.4483 115.299 60.235C115.102 60.0183 114.837 59.91 114.504 59.91C114.104 59.91 113.794 60.0667 113.574 60.38C113.357 60.6933 113.249 61.1433 113.249 61.73H112.834C112.834 61.2667 112.879 60.8667 112.969 60.53C113.059 60.1933 113.187 59.9167 113.354 59.7C113.524 59.4833 113.726 59.3233 113.959 59.22C114.196 59.1133 114.459 59.06 114.749 59.06C115.136 59.06 115.462 59.1467 115.729 59.32C115.999 59.4933 116.204 59.74 116.344 60.06C116.484 60.3767 116.554 60.75 116.554 61.18V64H115.599ZM108.934 64V59.19H109.759L109.864 60.095C110.017 59.7583 110.227 59.5017 110.494 59.325C110.764 59.1483 111.081 59.06 111.444 59.06C111.831 59.06 112.157 59.1467 112.424 59.32C112.694 59.4933 112.899 59.74 113.039 60.06C113.179 60.3767 113.249 60.75 113.249 61.18V64H112.304V61.18C112.304 60.7633 112.204 60.4483 112.004 60.235C111.807 60.0183 111.541 59.91 111.204 59.91C110.937 59.91 110.704 59.9833 110.504 60.13C110.307 60.2733 110.154 60.485 110.044 60.765C109.937 61.0417 109.884 61.38 109.884 61.78V64H108.934ZM120.158 64.13C119.721 64.13 119.33 64.035 118.983 63.845C118.64 63.655 118.368 63.3717 118.168 62.995C117.968 62.6183 117.868 62.1533 117.868 61.6C117.868 61.0367 117.968 60.5683 118.168 60.195C118.368 59.8183 118.64 59.535 118.983 59.345C119.33 59.155 119.721 59.06 120.158 59.06C120.588 59.06 120.975 59.155 121.318 59.345C121.661 59.535 121.931 59.8183 122.128 60.195C122.328 60.5683 122.428 61.0367 122.428 61.6C122.428 62.1533 122.328 62.6183 122.128 62.995C121.931 63.3717 121.661 63.655 121.318 63.845C120.975 64.035 120.588 64.13 120.158 64.13ZM120.128 63.3C120.405 63.3 120.643 63.2333 120.843 63.1C121.046 62.9667 121.201 62.7733 121.308 62.52C121.418 62.2633 121.473 61.9567 121.473 61.6C121.473 61.0533 121.361 60.63 121.138 60.33C120.918 60.03 120.6 59.88 120.183 59.88C119.903 59.88 119.661 59.9483 119.458 60.085C119.258 60.2183 119.103 60.4133 118.993 60.67C118.886 60.9233 118.833 61.2333 118.833 61.6C118.833 62.1367 118.945 62.555 119.168 62.855C119.391 63.1517 119.711 63.3 120.128 63.3ZM125.64 64.13C125.247 64.13 124.885 64.025 124.555 63.815C124.225 63.6017 123.962 63.305 123.765 62.925C123.572 62.5417 123.475 62.0917 123.475 61.575C123.475 61.0617 123.57 60.6167 123.76 60.24C123.953 59.8633 124.208 59.5733 124.525 59.37C124.842 59.1633 125.193 59.06 125.58 59.06C125.933 59.06 126.242 59.1467 126.505 59.32C126.768 59.49 126.972 59.7383 127.115 60.065C127.262 60.3917 127.335 60.79 127.335 61.26H127.005C127.005 60.97 126.947 60.725 126.83 60.525C126.713 60.3217 126.562 60.1683 126.375 60.065C126.188 59.9617 125.988 59.91 125.775 59.91C125.525 59.91 125.298 59.9783 125.095 60.115C124.895 60.2483 124.735 60.44 124.615 60.69C124.498 60.9367 124.44 61.2317 124.44 61.575C124.44 61.9217 124.498 62.2233 124.615 62.48C124.735 62.7333 124.895 62.9283 125.095 63.065C125.298 63.2017 125.523 63.27 125.77 63.27C125.973 63.27 126.168 63.2167 126.355 63.11C126.545 63 126.7 62.8433 126.82 62.64C126.943 62.4367 127.005 62.195 127.005 61.915H127.335C127.335 62.395 127.258 62.8 127.105 63.13C126.955 63.46 126.752 63.71 126.495 63.88C126.238 64.0467 125.953 64.13 125.64 64.13ZM127.17 64L127.005 62.845V57.165H127.96V64H127.17ZM131.636 64.13C131.222 64.13 130.849 64.0233 130.516 63.81C130.182 63.5967 129.917 63.3 129.721 62.92C129.527 62.54 129.431 62.1 129.431 61.6C129.431 61.07 129.527 60.6167 129.721 60.24C129.914 59.86 130.177 59.5683 130.511 59.365C130.844 59.1617 131.219 59.06 131.636 59.06C132.009 59.06 132.329 59.1367 132.596 59.29C132.862 59.44 133.077 59.6433 133.241 59.9C133.404 60.1533 133.516 60.4417 133.576 60.765C133.639 61.0883 133.651 61.4217 133.611 61.765H130.191V61.215H132.961L132.731 61.365C132.741 61.185 132.731 61.005 132.701 60.825C132.674 60.645 132.621 60.48 132.541 60.33C132.461 60.1767 132.347 60.055 132.201 59.965C132.057 59.8717 131.874 59.825 131.651 59.825C131.371 59.825 131.136 59.895 130.946 60.035C130.759 60.175 130.617 60.3633 130.521 60.6C130.424 60.8333 130.376 61.09 130.376 61.37V61.755C130.376 62.065 130.422 62.34 130.516 62.58C130.609 62.82 130.747 63.01 130.931 63.15C131.117 63.2867 131.352 63.355 131.636 63.355C131.912 63.355 132.141 63.29 132.321 63.16C132.504 63.03 132.617 62.835 132.661 62.575H133.631C133.581 62.8883 133.466 63.1617 133.286 63.395C133.106 63.6283 132.874 63.81 132.591 63.94C132.311 64.0667 131.992 64.13 131.636 64.13ZM135.116 64V57.165H136.066V64H135.116Z" fill="black"/>
<rect x="234.25" y="34.25" width="72.5" height="41.5" rx="4.75" fill="#F5F5F5"/>
<rect x="234.25" y="34.25" width="72.5" height="41.5" rx="4.75" stroke="#A7A7A7" stroke-width="0.5"/>
<path d="M244.065 52L246.245 45.63H247.42L249.535 52H248.535L248.04 50.48H245.58L245.065 52H244.065ZM245.82 49.75H247.805L246.815 46.775L245.82 49.75ZM252.502 52.13C252.109 52.13 251.742 52.025 251.402 51.815C251.062 51.605 250.789 51.31 250.582 50.93C250.376 50.55 250.272 50.1033 250.272 49.59C250.272 49.05 250.376 48.5933 250.582 48.22C250.789 47.8433 251.062 47.5567 251.402 47.36C251.742 47.16 252.109 47.06 252.502 47.06C252.792 47.06 253.051 47.1067 253.277 47.2C253.504 47.29 253.699 47.4133 253.862 47.57C254.026 47.7233 254.157 47.8967 254.257 48.09C254.361 48.2833 254.432 48.4833 254.472 48.69L253.507 48.74C253.437 48.49 253.314 48.29 253.137 48.14C252.964 47.9867 252.749 47.91 252.492 47.91C252.276 47.91 252.071 47.9717 251.877 48.095C251.687 48.215 251.532 48.4 251.412 48.65C251.296 48.8967 251.237 49.21 251.237 49.59C251.237 49.9433 251.292 50.245 251.402 50.495C251.512 50.745 251.662 50.9367 251.852 51.07C252.042 51.2033 252.256 51.27 252.492 51.27C252.832 51.27 253.086 51.1883 253.252 51.025C253.422 50.8583 253.507 50.63 253.507 50.34H254.472C254.472 50.6767 254.394 50.98 254.237 51.25C254.081 51.52 253.854 51.735 253.557 51.895C253.264 52.0517 252.912 52.13 252.502 52.13ZM257.692 52.13C257.306 52.13 256.944 52.03 256.607 51.83C256.274 51.6267 256.004 51.335 255.797 50.955C255.591 50.575 255.487 50.12 255.487 49.59C255.487 49.06 255.589 48.6067 255.792 48.23C255.996 47.8533 256.262 47.565 256.592 47.365C256.922 47.1617 257.274 47.06 257.647 47.06C257.971 47.06 258.264 47.14 258.527 47.3C258.791 47.4567 259.001 47.695 259.157 48.015C259.314 48.335 259.392 48.7367 259.392 49.22H259.012C259.012 48.94 258.956 48.7033 258.842 48.51C258.729 48.3133 258.581 48.165 258.397 48.065C258.214 47.9617 258.014 47.91 257.797 47.91C257.547 47.91 257.321 47.9767 257.117 48.11C256.914 48.2433 256.752 48.435 256.632 48.685C256.512 48.935 256.452 49.2367 256.452 49.59C256.452 49.96 256.517 50.27 256.647 50.52C256.781 50.77 256.951 50.9583 257.157 51.085C257.367 51.2083 257.586 51.27 257.812 51.27C258.016 51.27 258.209 51.2233 258.392 51.13C258.576 51.0367 258.724 50.8983 258.837 50.715C258.954 50.5317 259.012 50.3083 259.012 50.045H259.242C259.242 50.4583 259.186 50.8217 259.072 51.135C258.962 51.445 258.792 51.6883 258.562 51.865C258.332 52.0417 258.042 52.13 257.692 52.13ZM260.367 54.48C259.874 54.35 259.524 54.1467 259.317 53.87C259.114 53.5967 259.012 53.2117 259.012 52.715V48.345L259.327 47.19H259.957V52.785C259.957 52.9983 259.977 53.165 260.017 53.285C260.061 53.4083 260.134 53.505 260.237 53.575C260.341 53.645 260.482 53.71 260.662 53.77L260.367 54.48ZM265.164 47.175H266.119V52H265.164V47.175ZM261.804 47.175H262.754V50.155C262.754 50.5183 262.843 50.7933 263.019 50.98C263.199 51.1667 263.451 51.26 263.774 51.26C264.048 51.26 264.288 51.1883 264.494 51.045C264.704 50.9017 264.868 50.6983 264.984 50.435C265.104 50.1717 265.164 49.86 265.164 49.5H265.469C265.469 50.0633 265.393 50.5367 265.239 50.92C265.086 51.3033 264.871 51.595 264.594 51.795C264.318 51.9917 263.994 52.09 263.624 52.09C263.271 52.09 262.956 52.025 262.679 51.895C262.406 51.765 262.191 51.565 262.034 51.295C261.881 51.0217 261.804 50.67 261.804 50.24V47.175ZM268.617 46.165C268.427 46.165 268.277 46.1133 268.167 46.01C268.06 45.9033 268.007 45.76 268.007 45.58C268.007 45.4067 268.06 45.27 268.167 45.17C268.277 45.0667 268.427 45.015 268.617 45.015C268.803 45.015 268.95 45.0667 269.057 45.17C269.167 45.27 269.222 45.4067 269.222 45.58C269.222 45.76 269.167 45.9033 269.057 46.01C268.95 46.1133 268.803 46.165 268.617 46.165ZM268.142 52V47.175H269.092V52H268.142ZM272.932 52.13C272.466 52.13 272.072 52.065 271.752 51.935C271.432 51.8017 271.187 51.6183 271.017 51.385C270.851 51.1483 270.764 50.8717 270.757 50.555H271.652C271.666 50.8317 271.776 51.0367 271.982 51.17C272.192 51.3033 272.476 51.37 272.832 51.37C273.022 51.37 273.194 51.34 273.347 51.28C273.504 51.22 273.627 51.1383 273.717 51.035C273.811 50.9317 273.857 50.815 273.857 50.685C273.857 50.5217 273.797 50.3933 273.677 50.3C273.557 50.2033 273.364 50.1183 273.097 50.045L272.112 49.71C271.719 49.5767 271.417 49.4 271.207 49.18C270.997 48.9567 270.892 48.69 270.892 48.38C270.892 47.9833 271.069 47.665 271.422 47.425C271.776 47.1817 272.244 47.06 272.827 47.06C273.431 47.06 273.896 47.1883 274.222 47.445C274.552 47.6983 274.724 48.0167 274.737 48.4H273.822C273.799 48.21 273.704 48.065 273.537 47.965C273.374 47.8617 273.137 47.81 272.827 47.81C272.537 47.81 272.309 47.8733 272.142 48C271.979 48.1267 271.897 48.27 271.897 48.43C271.897 48.7167 272.144 48.93 272.637 49.07L273.672 49.435C274.066 49.5617 274.369 49.725 274.582 49.925C274.796 50.125 274.902 50.3783 274.902 50.685C274.902 50.9317 274.821 51.165 274.657 51.385C274.494 51.605 274.264 51.785 273.967 51.925C273.674 52.0617 273.329 52.13 272.932 52.13ZM276.986 46.165C276.796 46.165 276.646 46.1133 276.536 46.01C276.429 45.9033 276.376 45.76 276.376 45.58C276.376 45.4067 276.429 45.27 276.536 45.17C276.646 45.0667 276.796 45.015 276.986 45.015C277.173 45.015 277.319 45.0667 277.426 45.17C277.536 45.27 277.591 45.4067 277.591 45.58C277.591 45.76 277.536 45.9033 277.426 46.01C277.319 46.1133 277.173 46.165 276.986 46.165ZM276.511 52V47.175H277.461V52H276.511ZM281.086 52.13C280.813 52.13 280.566 52.0783 280.346 51.975C280.126 51.8717 279.951 51.7167 279.821 51.51C279.695 51.3 279.631 51.0367 279.631 50.72V45.88H280.576V50.69C280.576 51.1433 280.788 51.37 281.211 51.37C281.341 51.37 281.468 51.3567 281.591 51.33C281.715 51.3 281.855 51.2567 282.011 51.2L282.146 51.875C281.97 51.9483 281.795 52.0083 281.621 52.055C281.451 52.105 281.273 52.13 281.086 52.13ZM278.896 47.835V47.19H282.001V47.835H278.896ZM283.929 46.165C283.739 46.165 283.589 46.1133 283.479 46.01C283.373 45.9033 283.319 45.76 283.319 45.58C283.319 45.4067 283.373 45.27 283.479 45.17C283.589 45.0667 283.739 45.015 283.929 45.015C284.116 45.015 284.263 45.0667 284.369 45.17C284.479 45.27 284.534 45.4067 284.534 45.58C284.534 45.76 284.479 45.9033 284.369 46.01C284.263 46.1133 284.116 46.165 283.929 46.165ZM283.454 52V47.175H284.404V52H283.454ZM288.295 52.13C287.858 52.13 287.466 52.035 287.12 51.845C286.776 51.655 286.505 51.3717 286.305 50.995C286.105 50.6183 286.005 50.1533 286.005 49.6C286.005 49.0367 286.105 48.5683 286.305 48.195C286.505 47.8183 286.776 47.535 287.12 47.345C287.466 47.155 287.858 47.06 288.295 47.06C288.725 47.06 289.111 47.155 289.455 47.345C289.798 47.535 290.068 47.8183 290.265 48.195C290.465 48.5683 290.565 49.0367 290.565 49.6C290.565 50.1533 290.465 50.6183 290.265 50.995C290.068 51.3717 289.798 51.655 289.455 51.845C289.111 52.035 288.725 52.13 288.295 52.13ZM288.265 51.3C288.541 51.3 288.78 51.2333 288.98 51.1C289.183 50.9667 289.338 50.7733 289.445 50.52C289.555 50.2633 289.61 49.9567 289.61 49.6C289.61 49.0533 289.498 48.63 289.275 48.33C289.055 48.03 288.736 47.88 288.32 47.88C288.04 47.88 287.798 47.9483 287.595 48.085C287.395 48.2183 287.24 48.4133 287.13 48.67C287.023 48.9233 286.97 49.2333 286.97 49.6C286.97 50.1367 287.081 50.555 287.305 50.855C287.528 51.1517 287.848 51.3 288.265 51.3ZM295.402 52V49.18C295.402 48.7633 295.302 48.4483 295.102 48.235C294.905 48.0183 294.638 47.91 294.302 47.91C294.035 47.91 293.802 47.9833 293.602 48.13C293.405 48.2733 293.252 48.485 293.142 48.765C293.035 49.0417 292.982 49.38 292.982 49.78H292.642C292.642 49.19 292.717 48.6933 292.867 48.29C293.02 47.8867 293.238 47.5817 293.522 47.375C293.805 47.165 294.145 47.06 294.542 47.06C294.928 47.06 295.255 47.1467 295.522 47.32C295.792 47.4933 295.997 47.74 296.137 48.06C296.277 48.3767 296.347 48.75 296.347 49.18V52H295.402ZM292.032 52V47.19H292.857L292.982 48.23V52H292.032ZM251.935 64V58.515C251.935 58.1817 251.999 57.9117 252.125 57.705C252.255 57.495 252.427 57.34 252.64 57.24C252.854 57.14 253.089 57.09 253.345 57.09C253.492 57.09 253.642 57.1 253.795 57.12C253.952 57.14 254.105 57.17 254.255 57.21L254.075 57.95C253.982 57.9167 253.887 57.89 253.79 57.87C253.697 57.85 253.607 57.84 253.52 57.84C253.417 57.84 253.317 57.86 253.22 57.9C253.124 57.9367 253.044 58.005 252.98 58.105C252.92 58.205 252.89 58.3467 252.89 58.53V64H251.935ZM251.18 59.835V59.19H253.835V59.835H251.18ZM258.431 59.175H259.386V64H258.431V59.175ZM255.071 59.175H256.021V62.155C256.021 62.5183 256.109 62.7933 256.286 62.98C256.466 63.1667 256.717 63.26 257.041 63.26C257.314 63.26 257.554 63.1883 257.761 63.045C257.971 62.9017 258.134 62.6983 258.251 62.435C258.371 62.1717 258.431 61.86 258.431 61.5H258.736C258.736 62.0633 258.659 62.5367 258.506 62.92C258.352 63.3033 258.137 63.595 257.861 63.795C257.584 63.9917 257.261 64.09 256.891 64.09C256.537 64.09 256.222 64.025 255.946 63.895C255.672 63.765 255.457 63.565 255.301 63.295C255.147 63.0217 255.071 62.67 255.071 62.24V59.175ZM264.703 64V61.18C264.703 60.7633 264.603 60.4483 264.403 60.235C264.207 60.0183 263.94 59.91 263.603 59.91C263.337 59.91 263.103 59.9833 262.903 60.13C262.707 60.2733 262.553 60.485 262.443 60.765C262.337 61.0417 262.283 61.38 262.283 61.78H261.943C261.943 61.19 262.018 60.6933 262.168 60.29C262.322 59.8867 262.54 59.5817 262.823 59.375C263.107 59.165 263.447 59.06 263.843 59.06C264.23 59.06 264.557 59.1467 264.823 59.32C265.093 59.4933 265.298 59.74 265.438 60.06C265.578 60.3767 265.648 60.75 265.648 61.18V64H264.703ZM261.333 64V59.19H262.158L262.283 60.23V64H261.333ZM269.206 64.13C268.813 64.13 268.446 64.025 268.106 63.815C267.766 63.605 267.493 63.31 267.286 62.93C267.08 62.55 266.976 62.1033 266.976 61.59C266.976 61.05 267.08 60.5933 267.286 60.22C267.493 59.8433 267.766 59.5567 268.106 59.36C268.446 59.16 268.813 59.06 269.206 59.06C269.496 59.06 269.755 59.1067 269.981 59.2C270.208 59.29 270.403 59.4133 270.566 59.57C270.73 59.7233 270.861 59.8967 270.961 60.09C271.065 60.2833 271.136 60.4833 271.176 60.69L270.211 60.74C270.141 60.49 270.018 60.29 269.841 60.14C269.668 59.9867 269.453 59.91 269.196 59.91C268.98 59.91 268.775 59.9717 268.581 60.095C268.391 60.215 268.236 60.4 268.116 60.65C268 60.8967 267.941 61.21 267.941 61.59C267.941 61.9433 267.996 62.245 268.106 62.495C268.216 62.745 268.366 62.9367 268.556 63.07C268.746 63.2033 268.96 63.27 269.196 63.27C269.536 63.27 269.79 63.1883 269.956 63.025C270.126 62.8583 270.211 62.63 270.211 62.34H271.176C271.176 62.6767 271.098 62.98 270.941 63.25C270.785 63.52 270.558 63.735 270.261 63.895C269.968 64.0517 269.616 64.13 269.206 64.13ZM274.216 64.13C273.943 64.13 273.696 64.0783 273.476 63.975C273.256 63.8717 273.081 63.7167 272.951 63.51C272.825 63.3 272.761 63.0367 272.761 62.72V57.88H273.706V62.69C273.706 63.1433 273.918 63.37 274.341 63.37C274.471 63.37 274.598 63.3567 274.721 63.33C274.845 63.3 274.985 63.2567 275.141 63.2L275.276 63.875C275.1 63.9483 274.925 64.0083 274.751 64.055C274.581 64.105 274.403 64.13 274.216 64.13ZM272.026 59.835V59.19H275.131V59.835H272.026ZM277.059 58.165C276.869 58.165 276.719 58.1133 276.609 58.01C276.503 57.9033 276.449 57.76 276.449 57.58C276.449 57.4067 276.503 57.27 276.609 57.17C276.719 57.0667 276.869 57.015 277.059 57.015C277.246 57.015 277.393 57.0667 277.499 57.17C277.609 57.27 277.664 57.4067 277.664 57.58C277.664 57.76 277.609 57.9033 277.499 58.01C277.393 58.1133 277.246 58.165 277.059 58.165ZM276.584 64V59.175H277.534V64H276.584ZM281.425 64.13C280.988 64.13 280.596 64.035 280.25 63.845C279.906 63.655 279.635 63.3717 279.435 62.995C279.235 62.6183 279.135 62.1533 279.135 61.6C279.135 61.0367 279.235 60.5683 279.435 60.195C279.635 59.8183 279.906 59.535 280.25 59.345C280.596 59.155 280.988 59.06 281.425 59.06C281.855 59.06 282.241 59.155 282.585 59.345C282.928 59.535 283.198 59.8183 283.395 60.195C283.595 60.5683 283.695 61.0367 283.695 61.6C283.695 62.1533 283.595 62.6183 283.395 62.995C283.198 63.3717 282.928 63.655 282.585 63.845C282.241 64.035 281.855 64.13 281.425 64.13ZM281.395 63.3C281.671 63.3 281.91 63.2333 282.11 63.1C282.313 62.9667 282.468 62.7733 282.575 62.52C282.685 62.2633 282.74 61.9567 282.74 61.6C282.74 61.0533 282.628 60.63 282.405 60.33C282.185 60.03 281.866 59.88 281.45 59.88C281.17 59.88 280.928 59.9483 280.725 60.085C280.525 60.2183 280.37 60.4133 280.26 60.67C280.153 60.9233 280.1 61.2333 280.1 61.6C280.1 62.1367 280.211 62.555 280.435 62.855C280.658 63.1517 280.978 63.3 281.395 63.3ZM288.532 64V61.18C288.532 60.7633 288.432 60.4483 288.232 60.235C288.035 60.0183 287.768 59.91 287.432 59.91C287.165 59.91 286.932 59.9833 286.732 60.13C286.535 60.2733 286.382 60.485 286.272 60.765C286.165 61.0417 286.112 61.38 286.112 61.78H285.772C285.772 61.19 285.847 60.6933 285.997 60.29C286.15 59.8867 286.368 59.5817 286.652 59.375C286.935 59.165 287.275 59.06 287.672 59.06C288.058 59.06 288.385 59.1467 288.652 59.32C288.922 59.4933 289.127 59.74 289.267 60.06C289.407 60.3767 289.477 60.75 289.477 61.18V64H288.532ZM285.162 64V59.19H285.987L286.112 60.23V64H285.162Z" fill="black"/>
<path d="M177.13 47V40.63H179.265C179.975 40.63 180.521 40.8067 180.905 41.16C181.288 41.5133 181.48 42.0017 181.48 42.625C181.48 43.2417 181.288 43.7267 180.905 44.08C180.521 44.43 179.975 44.605 179.265 44.605H178.09V47H177.13ZM178.09 43.775H179.265C179.671 43.775 179.98 43.67 180.19 43.46C180.4 43.25 180.505 42.9717 180.505 42.625C180.505 42.275 180.4 41.9917 180.19 41.775C179.98 41.5583 179.671 41.45 179.265 41.45H178.09V43.775ZM184.619 47.13C184.182 47.13 183.791 47.035 183.444 46.845C183.101 46.655 182.829 46.3717 182.629 45.995C182.429 45.6183 182.329 45.1533 182.329 44.6C182.329 44.0367 182.429 43.5683 182.629 43.195C182.829 42.8183 183.101 42.535 183.444 42.345C183.791 42.155 184.182 42.06 184.619 42.06C185.049 42.06 185.436 42.155 185.779 42.345C186.122 42.535 186.392 42.8183 186.589 43.195C186.789 43.5683 186.889 44.0367 186.889 44.6C186.889 45.1533 186.789 45.6183 186.589 45.995C186.392 46.3717 186.122 46.655 185.779 46.845C185.436 47.035 185.049 47.13 184.619 47.13ZM184.589 46.3C184.866 46.3 185.104 46.2333 185.304 46.1C185.507 45.9667 185.662 45.7733 185.769 45.52C185.879 45.2633 185.934 44.9567 185.934 44.6C185.934 44.0533 185.822 43.63 185.599 43.33C185.379 43.03 185.061 42.88 184.644 42.88C184.364 42.88 184.122 42.9483 183.919 43.085C183.719 43.2183 183.564 43.4133 183.454 43.67C183.347 43.9233 183.294 44.2333 183.294 44.6C183.294 45.1367 183.406 45.555 183.629 45.855C183.852 46.1517 184.172 46.3 184.589 46.3ZM190.116 47.13C189.649 47.13 189.256 47.065 188.936 46.935C188.616 46.8017 188.371 46.6183 188.201 46.385C188.034 46.1483 187.948 45.8717 187.941 45.555H188.836C188.849 45.8317 188.959 46.0367 189.166 46.17C189.376 46.3033 189.659 46.37 190.016 46.37C190.206 46.37 190.378 46.34 190.531 46.28C190.688 46.22 190.811 46.1383 190.901 46.035C190.994 45.9317 191.041 45.815 191.041 45.685C191.041 45.5217 190.981 45.3933 190.861 45.3C190.741 45.2033 190.548 45.1183 190.281 45.045L189.296 44.71C188.903 44.5767 188.601 44.4 188.391 44.18C188.181 43.9567 188.076 43.69 188.076 43.38C188.076 42.9833 188.253 42.665 188.606 42.425C188.959 42.1817 189.428 42.06 190.011 42.06C190.614 42.06 191.079 42.1883 191.406 42.445C191.736 42.6983 191.908 43.0167 191.921 43.4H191.006C190.983 43.21 190.888 43.065 190.721 42.965C190.558 42.8617 190.321 42.81 190.011 42.81C189.721 42.81 189.493 42.8733 189.326 43C189.163 43.1267 189.081 43.27 189.081 43.43C189.081 43.7167 189.328 43.93 189.821 44.07L190.856 44.435C191.249 44.5617 191.553 44.725 191.766 44.925C191.979 45.125 192.086 45.3783 192.086 45.685C192.086 45.9317 192.004 46.165 191.841 46.385C191.678 46.605 191.448 46.785 191.151 46.925C190.858 47.0617 190.513 47.13 190.116 47.13ZM195.165 47.13C194.891 47.13 194.645 47.0783 194.425 46.975C194.205 46.8717 194.03 46.7167 193.9 46.51C193.773 46.3 193.71 46.0367 193.71 45.72V40.88H194.655V45.69C194.655 46.1433 194.866 46.37 195.29 46.37C195.42 46.37 195.546 46.3567 195.67 46.33C195.793 46.3 195.933 46.2567 196.09 46.2L196.225 46.875C196.048 46.9483 195.873 47.0083 195.7 47.055C195.53 47.105 195.351 47.13 195.165 47.13ZM192.975 42.835V42.19H196.08V42.835H192.975ZM199.182 47.13C198.769 47.13 198.396 47.0233 198.062 46.81C197.729 46.5967 197.464 46.3 197.267 45.92C197.074 45.54 196.977 45.1 196.977 44.6C196.977 44.07 197.074 43.6167 197.267 43.24C197.461 42.86 197.724 42.5683 198.057 42.365C198.391 42.1617 198.766 42.06 199.182 42.06C199.556 42.06 199.876 42.1367 200.142 42.29C200.409 42.44 200.624 42.6433 200.787 42.9C200.951 43.1533 201.062 43.4417 201.122 43.765C201.186 44.0883 201.197 44.4217 201.157 44.765H197.737V44.215H200.507L200.277 44.365C200.287 44.185 200.277 44.005 200.247 43.825C200.221 43.645 200.167 43.48 200.087 43.33C200.007 43.1767 199.894 43.055 199.747 42.965C199.604 42.8717 199.421 42.825 199.197 42.825C198.917 42.825 198.682 42.895 198.492 43.035C198.306 43.175 198.164 43.3633 198.067 43.6C197.971 43.8333 197.922 44.09 197.922 44.37V44.755C197.922 45.065 197.969 45.34 198.062 45.58C198.156 45.82 198.294 46.01 198.477 46.15C198.664 46.2867 198.899 46.355 199.182 46.355C199.459 46.355 199.687 46.29 199.867 46.16C200.051 46.03 200.164 45.835 200.207 45.575H201.177C201.127 45.8883 201.012 46.1617 200.832 46.395C200.652 46.6283 200.421 46.81 200.137 46.94C199.857 47.0667 199.539 47.13 199.182 47.13ZM202.663 47V42.175H203.613V47H202.663ZM203.353 44.85C203.353 44.2333 203.416 43.7217 203.543 43.315C203.673 42.905 203.853 42.6 204.083 42.4C204.316 42.2 204.589 42.1 204.903 42.1C204.996 42.1 205.083 42.1067 205.163 42.12C205.246 42.1333 205.328 42.1517 205.408 42.175L205.373 43.12C205.283 43.0967 205.184 43.0767 205.078 43.06C204.974 43.04 204.879 43.03 204.793 43.03C204.519 43.03 204.296 43.1033 204.123 43.25C203.949 43.3933 203.821 43.6017 203.738 43.875C203.654 44.145 203.613 44.47 203.613 44.85H203.353ZM206.953 41.165C206.763 41.165 206.613 41.1133 206.503 41.01C206.396 40.9033 206.343 40.76 206.343 40.58C206.343 40.4067 206.396 40.27 206.503 40.17C206.613 40.0667 206.763 40.015 206.953 40.015C207.139 40.015 207.286 40.0667 207.393 40.17C207.503 40.27 207.558 40.4067 207.558 40.58C207.558 40.76 207.503 40.9033 207.393 41.01C207.286 41.1133 207.139 41.165 206.953 41.165ZM206.478 47V42.175H207.428V47H206.478ZM211.318 47.13C210.882 47.13 210.49 47.035 210.143 46.845C209.8 46.655 209.528 46.3717 209.328 45.995C209.128 45.6183 209.028 45.1533 209.028 44.6C209.028 44.0367 209.128 43.5683 209.328 43.195C209.528 42.8183 209.8 42.535 210.143 42.345C210.49 42.155 210.882 42.06 211.318 42.06C211.748 42.06 212.135 42.155 212.478 42.345C212.822 42.535 213.092 42.8183 213.288 43.195C213.488 43.5683 213.588 44.0367 213.588 44.6C213.588 45.1533 213.488 45.6183 213.288 45.995C213.092 46.3717 212.822 46.655 212.478 46.845C212.135 47.035 211.748 47.13 211.318 47.13ZM211.288 46.3C211.565 46.3 211.803 46.2333 212.003 46.1C212.207 45.9667 212.362 45.7733 212.468 45.52C212.578 45.2633 212.633 44.9567 212.633 44.6C212.633 44.0533 212.522 43.63 212.298 43.33C212.078 43.03 211.76 42.88 211.343 42.88C211.063 42.88 210.822 42.9483 210.618 43.085C210.418 43.2183 210.263 43.4133 210.153 43.67C210.047 43.9233 209.993 44.2333 209.993 44.6C209.993 45.1367 210.105 45.555 210.328 45.855C210.552 46.1517 210.872 46.3 211.288 46.3ZM215.055 47V42.175H216.005V47H215.055ZM215.745 44.85C215.745 44.2333 215.808 43.7217 215.935 43.315C216.065 42.905 216.245 42.6 216.475 42.4C216.708 42.2 216.982 42.1 217.295 42.1C217.388 42.1 217.475 42.1067 217.555 42.12C217.638 42.1333 217.72 42.1517 217.8 42.175L217.765 43.12C217.675 43.0967 217.577 43.0767 217.47 43.06C217.367 43.04 217.272 43.03 217.185 43.03C216.912 43.03 216.688 43.1033 216.515 43.25C216.342 43.3933 216.213 43.6017 216.13 43.875C216.047 44.145 216.005 44.47 216.005 44.85H215.745Z" fill="black"/>
<path d="M82 55L77 52.1132V57.8868L82 55ZM45 55.5H77.5V54.5H45V55.5Z" fill="black"/>
<path d="M230 55L225 52.1132V57.8868L230 55ZM163 55.5H225.5V54.5H163V55.5Z" fill="black"/>
<path d="M348 55L343 52.1132V57.8868L348 55ZM311 55.5H343.5V54.5H311V55.5Z" fill="black"/>
<path d="M124 30L126.887 25L121.113 25L124 30ZM123.5 18L123.5 25.5L124.5 25.5L124.5 18L123.5 18Z" fill="black"/>
<path d="M140.811 11.117C140.565 11.117 140.343 11.0705 140.145 10.9775C139.947 10.8845 139.789 10.745 139.672 10.559C139.558 10.37 139.501 10.133 139.501 9.848V5.492H140.352V9.821C140.352 10.229 140.542 10.433 140.923 10.433C141.04 10.433 141.154 10.421 141.265 10.397C141.376 10.37 141.502 10.331 141.643 10.28L141.765 10.8875C141.606 10.9535 141.448 11.0075 141.292 11.0495C141.139 11.0945 140.979 11.117 140.811 11.117ZM138.84 7.2515V6.671H141.634V7.2515H138.84ZM142.875 11V6.6575H143.73V11H142.875ZM143.496 9.065C143.496 8.51 143.553 8.0495 143.667 7.6835C143.784 7.3145 143.946 7.04 144.153 6.86C144.363 6.68 144.609 6.59 144.891 6.59C144.975 6.59 145.053 6.596 145.125 6.608C145.2 6.62 145.273 6.6365 145.345 6.6575L145.314 7.508C145.233 7.487 145.144 7.469 145.048 7.454C144.955 7.436 144.87 7.427 144.792 7.427C144.546 7.427 144.345 7.493 144.189 7.625C144.033 7.754 143.917 7.9415 143.842 8.1875C143.767 8.4305 143.73 8.723 143.73 9.065H143.496ZM148.954 11L148.846 10.0055V8.201C148.846 7.847 148.773 7.5905 148.626 7.4315C148.479 7.2695 148.246 7.1885 147.928 7.1885C147.748 7.1885 147.588 7.2155 147.447 7.2695C147.309 7.3205 147.199 7.3985 147.118 7.5035C147.04 7.6085 147.001 7.7405 147.001 7.8995H146.056C146.056 7.5815 146.134 7.3235 146.29 7.1255C146.446 6.9275 146.664 6.7835 146.943 6.6935C147.225 6.6005 147.553 6.554 147.928 6.554C148.279 6.554 148.588 6.6125 148.855 6.7295C149.122 6.8435 149.329 7.0235 149.476 7.2695C149.626 7.5155 149.701 7.8335 149.701 8.2235V11H148.954ZM147.505 11.117C147.142 11.117 146.841 11.054 146.601 10.928C146.361 10.799 146.181 10.631 146.061 10.424C145.944 10.217 145.885 9.9965 145.885 9.7625C145.885 9.4775 145.957 9.2435 146.101 9.0605C146.248 8.8745 146.451 8.7365 146.709 8.6465C146.967 8.5565 147.264 8.5115 147.6 8.5115C147.831 8.5115 148.056 8.5325 148.275 8.5745C148.494 8.6165 148.71 8.672 148.923 8.741V9.2585C148.749 9.1955 148.555 9.146 148.342 9.11C148.132 9.071 147.936 9.0515 147.753 9.0515C147.48 9.0515 147.252 9.1055 147.069 9.2135C146.886 9.3215 146.794 9.5045 146.794 9.7625C146.794 9.9515 146.866 10.115 147.01 10.253C147.154 10.388 147.382 10.4555 147.694 10.4555C147.922 10.4555 148.123 10.4045 148.297 10.3025C148.471 10.1975 148.606 10.067 148.702 9.911C148.798 9.755 148.846 9.599 148.846 9.443H149.053C149.053 9.743 148.992 10.0205 148.869 10.2755C148.749 10.5275 148.573 10.7315 148.342 10.8875C148.111 11.0405 147.832 11.117 147.505 11.117ZM151.825 5.7485C151.654 5.7485 151.519 5.702 151.42 5.609C151.324 5.513 151.276 5.384 151.276 5.222C151.276 5.066 151.324 4.943 151.42 4.853C151.519 4.76 151.654 4.7135 151.825 4.7135C151.993 4.7135 152.125 4.76 152.221 4.853C152.32 4.943 152.369 5.066 152.369 5.222C152.369 5.384 152.32 5.513 152.221 5.609C152.125 5.702 151.993 5.7485 151.825 5.7485ZM151.397 11V6.6575H152.252V11H151.397ZM157.158 11V8.462C157.158 8.087 157.068 7.8035 156.888 7.6115C156.711 7.4165 156.471 7.319 156.168 7.319C155.928 7.319 155.718 7.385 155.538 7.517C155.361 7.646 155.223 7.8365 155.124 8.0885C155.028 8.3375 154.98 8.642 154.98 9.002H154.674C154.674 8.471 154.741 8.024 154.876 7.661C155.014 7.298 155.211 7.0235 155.466 6.8375C155.721 6.6485 156.027 6.554 156.384 6.554C156.732 6.554 157.026 6.632 157.266 6.788C157.509 6.944 157.693 7.166 157.819 7.454C157.945 7.739 158.008 8.075 158.008 8.462V11H157.158ZM154.125 11V6.671H154.867L154.98 7.607V11H154.125ZM160.13 5.7485C159.959 5.7485 159.824 5.702 159.725 5.609C159.629 5.513 159.581 5.384 159.581 5.222C159.581 5.066 159.629 4.943 159.725 4.853C159.824 4.76 159.959 4.7135 160.13 4.7135C160.298 4.7135 160.43 4.76 160.526 4.853C160.625 4.943 160.675 5.066 160.675 5.222C160.675 5.384 160.625 5.513 160.526 5.609C160.43 5.702 160.298 5.7485 160.13 5.7485ZM159.703 11V6.6575H160.558V11H159.703ZM165.463 11V8.462C165.463 8.087 165.373 7.8035 165.193 7.6115C165.016 7.4165 164.776 7.319 164.473 7.319C164.233 7.319 164.023 7.385 163.843 7.517C163.666 7.646 163.528 7.8365 163.429 8.0885C163.333 8.3375 163.285 8.642 163.285 9.002H162.979C162.979 8.471 163.047 8.024 163.182 7.661C163.32 7.298 163.516 7.0235 163.771 6.8375C164.026 6.6485 164.332 6.554 164.689 6.554C165.037 6.554 165.331 6.632 165.571 6.788C165.814 6.944 165.999 7.166 166.125 7.454C166.251 7.739 166.314 8.075 166.314 8.462V11H165.463ZM162.43 11V6.671H163.173L163.285 7.607V11H162.43ZM169.534 13.232C169.066 13.232 168.662 13.1675 168.323 13.0385C167.987 12.9095 167.728 12.737 167.545 12.521C167.362 12.305 167.27 12.0695 167.27 11.8145C167.27 11.4905 167.389 11.2415 167.626 11.0675C167.863 10.8965 168.164 10.811 168.53 10.811L169.084 11.072C168.772 11.072 168.53 11.135 168.359 11.261C168.191 11.387 168.107 11.558 168.107 11.774C168.107 11.999 168.23 12.1835 168.476 12.3275C168.722 12.4745 169.075 12.548 169.534 12.548C169.867 12.548 170.159 12.4985 170.411 12.3995C170.663 12.3035 170.858 12.176 170.996 12.017C171.134 11.861 171.203 11.693 171.203 11.513C171.203 11.39 171.158 11.285 171.068 11.198C170.981 11.114 170.848 11.072 170.668 11.072H169.084C168.79 11.072 168.53 11.027 168.305 10.937C168.083 10.844 167.909 10.7225 167.783 10.5725C167.657 10.4225 167.594 10.256 167.594 10.073C167.594 9.893 167.645 9.7385 167.747 9.6095C167.849 9.4775 167.984 9.3785 168.152 9.3125C168.32 9.2435 168.505 9.209 168.706 9.209L168.899 9.506C168.812 9.506 168.725 9.5255 168.638 9.5645C168.551 9.6005 168.479 9.656 168.422 9.731C168.365 9.806 168.337 9.899 168.337 10.01C168.337 10.139 168.391 10.247 168.499 10.334C168.61 10.418 168.805 10.46 169.084 10.46H170.668C171.1 10.46 171.439 10.5455 171.685 10.7165C171.931 10.8875 172.054 11.1365 172.054 11.4635C172.054 11.7605 171.952 12.044 171.748 12.314C171.544 12.584 171.253 12.8045 170.875 12.9755C170.5 13.1465 170.053 13.232 169.534 13.232ZM169.628 9.6995C169.292 9.6995 168.986 9.635 168.71 9.506C168.437 9.374 168.22 9.191 168.058 8.957C167.896 8.72 167.815 8.444 167.815 8.129C167.815 7.811 167.896 7.535 168.058 7.301C168.22 7.064 168.437 6.881 168.71 6.752C168.986 6.62 169.292 6.554 169.628 6.554C169.955 6.554 170.254 6.62 170.524 6.752C170.797 6.881 171.014 7.064 171.176 7.301C171.341 7.535 171.424 7.811 171.424 8.129C171.424 8.444 171.341 8.72 171.176 8.957C171.014 9.191 170.797 9.374 170.524 9.506C170.254 9.635 169.955 9.6995 169.628 9.6995ZM169.628 9.0965C169.937 9.0965 170.173 9.005 170.335 8.822C170.5 8.636 170.582 8.405 170.582 8.129C170.582 7.841 170.5 7.6085 170.335 7.4315C170.173 7.2545 169.937 7.166 169.628 7.166C169.325 7.166 169.088 7.2545 168.917 7.4315C168.749 7.6085 168.665 7.841 168.665 8.129C168.665 8.405 168.749 8.636 168.917 8.822C169.088 9.005 169.325 9.0965 169.628 9.0965ZM171.1 7.247L170.699 7.0535C170.699 6.7955 170.753 6.5705 170.861 6.3785C170.969 6.1865 171.119 6.0365 171.311 5.9285C171.503 5.8205 171.724 5.7665 171.973 5.7665L171.919 6.599C171.652 6.599 171.448 6.6515 171.307 6.7565C171.169 6.8615 171.1 7.025 171.1 7.247ZM176.859 11.117C176.505 11.117 176.18 11.0225 175.883 10.8335C175.586 10.6415 175.349 10.3745 175.172 10.0325C174.998 9.6875 174.911 9.2825 174.911 8.8175C174.911 8.3555 174.996 7.955 175.167 7.616C175.341 7.277 175.571 7.016 175.856 6.833C176.141 6.647 176.457 6.554 176.805 6.554C177.123 6.554 177.401 6.632 177.638 6.788C177.875 6.941 178.058 7.1645 178.187 7.4585C178.319 7.7525 178.385 8.111 178.385 8.534H178.088C178.088 8.273 178.035 8.0525 177.93 7.8725C177.825 7.6895 177.689 7.5515 177.521 7.4585C177.353 7.3655 177.173 7.319 176.981 7.319C176.756 7.319 176.552 7.3805 176.369 7.5035C176.189 7.6235 176.045 7.796 175.937 8.021C175.832 8.243 175.779 8.5085 175.779 8.8175C175.779 9.1295 175.832 9.401 175.937 9.632C176.045 9.86 176.189 10.0355 176.369 10.1585C176.552 10.2815 176.754 10.343 176.976 10.343C177.159 10.343 177.335 10.295 177.503 10.199C177.674 10.1 177.813 9.959 177.921 9.776C178.032 9.593 178.088 9.3755 178.088 9.1235H178.385C178.385 9.5555 178.316 9.92 178.178 10.217C178.043 10.514 177.86 10.739 177.629 10.892C177.398 11.042 177.141 11.117 176.859 11.117ZM178.236 11L178.088 9.9605V4.8485H178.947V11H178.236ZM183.416 11L183.308 10.0055V8.201C183.308 7.847 183.235 7.5905 183.088 7.4315C182.941 7.2695 182.708 7.1885 182.39 7.1885C182.21 7.1885 182.05 7.2155 181.909 7.2695C181.771 7.3205 181.661 7.3985 181.58 7.5035C181.502 7.6085 181.463 7.7405 181.463 7.8995H180.518C180.518 7.5815 180.596 7.3235 180.752 7.1255C180.908 6.9275 181.126 6.7835 181.405 6.6935C181.687 6.6005 182.015 6.554 182.39 6.554C182.741 6.554 183.05 6.6125 183.317 6.7295C183.584 6.8435 183.791 7.0235 183.938 7.2695C184.088 7.5155 184.163 7.8335 184.163 8.2235V11H183.416ZM181.967 11.117C181.604 11.117 181.303 11.054 181.063 10.928C180.823 10.799 180.643 10.631 180.523 10.424C180.406 10.217 180.347 9.9965 180.347 9.7625C180.347 9.4775 180.419 9.2435 180.563 9.0605C180.71 8.8745 180.913 8.7365 181.171 8.6465C181.429 8.5565 181.726 8.5115 182.062 8.5115C182.293 8.5115 182.518 8.5325 182.737 8.5745C182.956 8.6165 183.172 8.672 183.385 8.741V9.2585C183.211 9.1955 183.017 9.146 182.804 9.11C182.594 9.071 182.398 9.0515 182.215 9.0515C181.942 9.0515 181.714 9.1055 181.531 9.2135C181.348 9.3215 181.256 9.5045 181.256 9.7625C181.256 9.9515 181.328 10.115 181.472 10.253C181.616 10.388 181.844 10.4555 182.156 10.4555C182.384 10.4555 182.585 10.4045 182.759 10.3025C182.933 10.1975 183.068 10.067 183.164 9.911C183.26 9.755 183.308 9.599 183.308 9.443H183.515C183.515 9.743 183.454 10.0205 183.331 10.2755C183.211 10.5275 183.035 10.7315 182.804 10.8875C182.573 11.0405 182.294 11.117 181.967 11.117ZM187.182 11.117C186.936 11.117 186.714 11.0705 186.516 10.9775C186.318 10.8845 186.161 10.745 186.044 10.559C185.93 10.37 185.873 10.133 185.873 9.848V5.492H186.723V9.821C186.723 10.229 186.914 10.433 187.295 10.433C187.412 10.433 187.526 10.421 187.637 10.397C187.748 10.37 187.874 10.331 188.015 10.28L188.136 10.8875C187.977 10.9535 187.82 11.0075 187.664 11.0495C187.511 11.0945 187.35 11.117 187.182 11.117ZM185.211 7.2515V6.671H188.006V7.2515H185.211ZM191.959 11L191.851 10.0055V8.201C191.851 7.847 191.778 7.5905 191.631 7.4315C191.484 7.2695 191.251 7.1885 190.933 7.1885C190.753 7.1885 190.593 7.2155 190.452 7.2695C190.314 7.3205 190.204 7.3985 190.123 7.5035C190.045 7.6085 190.006 7.7405 190.006 7.8995H189.061C189.061 7.5815 189.139 7.3235 189.295 7.1255C189.451 6.9275 189.669 6.7835 189.948 6.6935C190.23 6.6005 190.558 6.554 190.933 6.554C191.284 6.554 191.593 6.6125 191.86 6.7295C192.127 6.8435 192.334 7.0235 192.481 7.2695C192.631 7.5155 192.706 7.8335 192.706 8.2235V11H191.959ZM190.51 11.117C190.147 11.117 189.846 11.054 189.606 10.928C189.366 10.799 189.186 10.631 189.066 10.424C188.949 10.217 188.89 9.9965 188.89 9.7625C188.89 9.4775 188.962 9.2435 189.106 9.0605C189.253 8.8745 189.456 8.7365 189.714 8.6465C189.972 8.5565 190.269 8.5115 190.605 8.5115C190.836 8.5115 191.061 8.5325 191.28 8.5745C191.499 8.6165 191.715 8.672 191.928 8.741V9.2585C191.754 9.1955 191.56 9.146 191.347 9.11C191.137 9.071 190.941 9.0515 190.758 9.0515C190.485 9.0515 190.257 9.1055 190.074 9.2135C189.891 9.3215 189.799 9.5045 189.799 9.7625C189.799 9.9515 189.871 10.115 190.015 10.253C190.159 10.388 190.387 10.4555 190.699 10.4555C190.927 10.4555 191.128 10.4045 191.302 10.3025C191.476 10.1975 191.611 10.067 191.707 9.911C191.803 9.755 191.851 9.599 191.851 9.443H192.058C192.058 9.743 191.997 10.0205 191.874 10.2755C191.754 10.5275 191.578 10.7315 191.347 10.8875C191.116 11.0405 190.837 11.117 190.51 11.117Z" fill="black"/>
<path d="M5.49888 31V28.462C5.49888 28.087 5.40888 27.8035 5.22888 27.6115C5.05188 27.4165 4.81188 27.319 4.50888 27.319C4.26888 27.319 4.05888 27.385 3.87888 27.517C3.70188 27.646 3.56388 27.8365 3.46488 28.0885C3.36888 28.3375 3.32088 28.642 3.32088 29.002H3.01488C3.01488 28.471 3.08238 28.024 3.21738 27.661C3.35538 27.298 3.55188 27.0235 3.80688 26.8375C4.06188 26.6485 4.36788 26.554 4.72488 26.554C5.07288 26.554 5.36688 26.632 5.60688 26.788C5.84988 26.944 6.03438 27.166 6.16038 27.454C6.28638 27.739 6.34938 28.075 6.34938 28.462V31H5.49888ZM2.46588 31V24.8485H3.32088V31H2.46588ZM7.28812 26.671H8.24662L9.55162 30.253H9.37612L10.4246 26.671H11.2976L9.65512 31.8325C9.50512 32.3005 9.31162 32.65 9.07462 32.881C8.84062 33.115 8.54662 33.232 8.19262 33.232C7.99462 33.232 7.80412 33.2065 7.62112 33.1555C7.44112 33.1045 7.25662 33.0295 7.06762 32.9305V32.161C7.22962 32.275 7.38562 32.3575 7.53562 32.4085C7.68562 32.4595 7.84162 32.485 8.00362 32.485C8.16562 32.485 8.30362 32.4355 8.41762 32.3365C8.53462 32.2405 8.63212 32.1115 8.71012 31.9495C8.79112 31.7905 8.86012 31.6165 8.91712 31.4275L9.04762 31L7.28812 26.671ZM14.3616 31.117C14.0466 31.117 13.7736 31.0465 13.5426 30.9055C13.3116 30.7615 13.1346 30.5515 13.0116 30.2755C12.8916 29.9965 12.8316 29.6515 12.8316 29.2405H13.1646C13.1646 29.4775 13.2156 29.6785 13.3176 29.8435C13.4196 30.0055 13.5531 30.13 13.7181 30.217C13.8861 30.301 14.0646 30.343 14.2536 30.343C14.4516 30.343 14.6436 30.2875 14.8296 30.1765C15.0186 30.0625 15.1731 29.893 15.2931 29.668C15.4131 29.443 15.4731 29.164 15.4731 28.831C15.4731 28.513 15.4191 28.2415 15.3111 28.0165C15.2061 27.7915 15.0621 27.619 14.8791 27.499C14.6961 27.379 14.4906 27.319 14.2626 27.319C14.0706 27.319 13.8906 27.3655 13.7226 27.4585C13.5546 27.5485 13.4196 27.682 13.3176 27.859C13.2156 28.033 13.1646 28.246 13.1646 28.498H12.8316C12.8316 28.063 12.9006 27.7015 13.0386 27.4135C13.1796 27.1255 13.3686 26.911 13.6056 26.77C13.8426 26.626 14.1051 26.554 14.3931 26.554C14.7321 26.554 15.0501 26.6455 15.3471 26.8285C15.6441 27.0085 15.8841 27.268 16.0671 27.607C16.2531 27.946 16.3461 28.354 16.3461 28.831C16.3461 29.308 16.2531 29.7175 16.0671 30.0595C15.8811 30.4015 15.6366 30.664 15.3336 30.847C15.0336 31.027 14.7096 31.117 14.3616 31.117ZM12.3096 33.124V26.671H13.0161L13.1646 27.7105V33.124H12.3096ZM19.2235 31.117C18.8515 31.117 18.5155 31.021 18.2155 30.829C17.9155 30.637 17.677 30.37 17.5 30.028C17.326 29.686 17.239 29.29 17.239 28.84C17.239 28.363 17.326 27.955 17.5 27.616C17.674 27.274 17.911 27.0115 18.211 26.8285C18.511 26.6455 18.8485 26.554 19.2235 26.554C19.5595 26.554 19.8475 26.623 20.0875 26.761C20.3275 26.896 20.521 27.079 20.668 27.31C20.815 27.538 20.9155 27.7975 20.9695 28.0885C21.0265 28.3795 21.037 28.6795 21.001 28.9885H17.923V28.4935H20.416L20.209 28.6285C20.218 28.4665 20.209 28.3045 20.182 28.1425C20.158 27.9805 20.11 27.832 20.038 27.697C19.966 27.559 19.864 27.4495 19.732 27.3685C19.603 27.2845 19.438 27.2425 19.237 27.2425C18.985 27.2425 18.7735 27.3055 18.6025 27.4315C18.4345 27.5575 18.307 27.727 18.22 27.94C18.133 28.15 18.0895 28.381 18.0895 28.633V28.9795C18.0895 29.2585 18.1315 29.506 18.2155 29.722C18.2995 29.938 18.424 30.109 18.589 30.235C18.757 30.358 18.9685 30.4195 19.2235 30.4195C19.4725 30.4195 19.678 30.361 19.84 30.244C20.005 30.127 20.107 29.9515 20.146 29.7175H21.019C20.974 29.9995 20.8705 30.2455 20.7085 30.4555C20.5465 30.6655 20.338 30.829 20.083 30.946C19.831 31.06 19.5445 31.117 19.2235 31.117ZM22.3555 31V26.6575H23.2105V31H22.3555ZM22.9765 29.065C22.9765 28.51 23.0335 28.0495 23.1475 27.6835C23.2645 27.3145 23.4265 27.04 23.6335 26.86C23.8435 26.68 24.0895 26.59 24.3715 26.59C24.4555 26.59 24.5335 26.596 24.6055 26.608C24.6805 26.62 24.754 26.6365 24.826 26.6575L24.7945 27.508C24.7135 27.487 24.625 27.469 24.529 27.454C24.436 27.436 24.3505 27.427 24.2725 27.427C24.0265 27.427 23.8255 27.493 23.6695 27.625C23.5135 27.754 23.398 27.9415 23.323 28.1875C23.248 28.4305 23.2105 28.723 23.2105 29.065H22.9765ZM27.7737 31.117C27.4587 31.117 27.1857 31.0465 26.9547 30.9055C26.7237 30.7615 26.5467 30.5515 26.4237 30.2755C26.3037 29.9965 26.2437 29.6515 26.2437 29.2405H26.5767C26.5767 29.4775 26.6277 29.6785 26.7297 29.8435C26.8317 30.0055 26.9652 30.13 27.1302 30.217C27.2982 30.301 27.4767 30.343 27.6657 30.343C27.8637 30.343 28.0557 30.2875 28.2417 30.1765C28.4307 30.0625 28.5852 29.893 28.7052 29.668C28.8252 29.443 28.8852 29.164 28.8852 28.831C28.8852 28.513 28.8312 28.2415 28.7232 28.0165C28.6182 27.7915 28.4742 27.619 28.2912 27.499C28.1082 27.379 27.9027 27.319 27.6747 27.319C27.4827 27.319 27.3027 27.3655 27.1347 27.4585C26.9667 27.5485 26.8317 27.682 26.7297 27.859C26.6277 28.033 26.5767 28.246 26.5767 28.498H26.2437C26.2437 28.063 26.3127 27.7015 26.4507 27.4135C26.5917 27.1255 26.7807 26.911 27.0177 26.77C27.2547 26.626 27.5172 26.554 27.8052 26.554C28.1442 26.554 28.4622 26.6455 28.7592 26.8285C29.0562 27.0085 29.2962 27.268 29.4792 27.607C29.6652 27.946 29.7582 28.354 29.7582 28.831C29.7582 29.308 29.6652 29.7175 29.4792 30.0595C29.2932 30.4015 29.0487 30.664 28.7457 30.847C28.4457 31.027 28.1217 31.117 27.7737 31.117ZM25.7217 33.124V26.671H26.4282L26.5767 27.7105V33.124H25.7217ZM33.7966 31L33.6886 30.0055V28.201C33.6886 27.847 33.6151 27.5905 33.4681 27.4315C33.3211 27.2695 33.0886 27.1885 32.7706 27.1885C32.5906 27.1885 32.4301 27.2155 32.2891 27.2695C32.1511 27.3205 32.0416 27.3985 31.9606 27.5035C31.8826 27.6085 31.8436 27.7405 31.8436 27.8995H30.8986C30.8986 27.5815 30.9766 27.3235 31.1326 27.1255C31.2886 26.9275 31.5061 26.7835 31.7851 26.6935C32.0671 26.6005 32.3956 26.554 32.7706 26.554C33.1216 26.554 33.4306 26.6125 33.6976 26.7295C33.9646 26.8435 34.1716 27.0235 34.3186 27.2695C34.4686 27.5155 34.5436 27.8335 34.5436 28.2235V31H33.7966ZM32.3476 31.117C31.9846 31.117 31.6831 31.054 31.4431 30.928C31.2031 30.799 31.0231 30.631 30.9031 30.424C30.7861 30.217 30.7276 29.9965 30.7276 29.7625C30.7276 29.4775 30.7996 29.2435 30.9436 29.0605C31.0906 28.8745 31.2931 28.7365 31.5511 28.6465C31.8091 28.5565 32.1061 28.5115 32.4421 28.5115C32.6731 28.5115 32.8981 28.5325 33.1171 28.5745C33.3361 28.6165 33.5521 28.672 33.7651 28.741V29.2585C33.5911 29.1955 33.3976 29.146 33.1846 29.11C32.9746 29.071 32.7781 29.0515 32.5951 29.0515C32.3221 29.0515 32.0941 29.1055 31.9111 29.2135C31.7281 29.3215 31.6366 29.5045 31.6366 29.7625C31.6366 29.9515 31.7086 30.115 31.8526 30.253C31.9966 30.388 32.2246 30.4555 32.5366 30.4555C32.7646 30.4555 32.9656 30.4045 33.1396 30.3025C33.3136 30.1975 33.4486 30.067 33.5446 29.911C33.6406 29.755 33.6886 29.599 33.6886 29.443H33.8956C33.8956 29.743 33.8341 30.0205 33.7111 30.2755C33.5911 30.5275 33.4156 30.7315 33.1846 30.8875C32.9536 31.0405 32.6746 31.117 32.3476 31.117ZM36.1719 31V26.6575H37.0269V31H36.1719ZM36.7929 29.065C36.7929 28.51 36.8499 28.0495 36.9639 27.6835C37.0809 27.3145 37.2429 27.04 37.4499 26.86C37.6599 26.68 37.9059 26.59 38.1879 26.59C38.2719 26.59 38.3499 26.596 38.4219 26.608C38.4969 26.62 38.5704 26.6365 38.6424 26.6575L38.6109 27.508C38.5299 27.487 38.4414 27.469 38.3454 27.454C38.2524 27.436 38.1669 27.427 38.0889 27.427C37.8429 27.427 37.6419 27.493 37.4859 27.625C37.3299 27.754 37.2144 27.9415 37.1394 28.1875C37.0644 28.4305 37.0269 28.723 37.0269 29.065H36.7929ZM42.2516 31L42.1436 30.0055V28.201C42.1436 27.847 42.0701 27.5905 41.9231 27.4315C41.7761 27.2695 41.5436 27.1885 41.2256 27.1885C41.0456 27.1885 40.8851 27.2155 40.7441 27.2695C40.6061 27.3205 40.4966 27.3985 40.4156 27.5035C40.3376 27.6085 40.2986 27.7405 40.2986 27.8995H39.3536C39.3536 27.5815 39.4316 27.3235 39.5876 27.1255C39.7436 26.9275 39.9611 26.7835 40.2401 26.6935C40.5221 26.6005 40.8506 26.554 41.2256 26.554C41.5766 26.554 41.8856 26.6125 42.1526 26.7295C42.4196 26.8435 42.6266 27.0235 42.7736 27.2695C42.9236 27.5155 42.9986 27.8335 42.9986 28.2235V31H42.2516ZM40.8026 31.117C40.4396 31.117 40.1381 31.054 39.8981 30.928C39.6581 30.799 39.4781 30.631 39.3581 30.424C39.2411 30.217 39.1826 29.9965 39.1826 29.7625C39.1826 29.4775 39.2546 29.2435 39.3986 29.0605C39.5456 28.8745 39.7481 28.7365 40.0061 28.6465C40.2641 28.5565 40.5611 28.5115 40.8971 28.5115C41.1281 28.5115 41.3531 28.5325 41.5721 28.5745C41.7911 28.6165 42.0071 28.672 42.2201 28.741V29.2585C42.0461 29.1955 41.8526 29.146 41.6396 29.11C41.4296 29.071 41.2331 29.0515 41.0501 29.0515C40.7771 29.0515 40.5491 29.1055 40.3661 29.2135C40.1831 29.3215 40.0916 29.5045 40.0916 29.7625C40.0916 29.9515 40.1636 30.115 40.3076 30.253C40.4516 30.388 40.6796 30.4555 40.9916 30.4555C41.2196 30.4555 41.4206 30.4045 41.5946 30.3025C41.7686 30.1975 41.9036 30.067 41.9996 29.911C42.0956 29.755 42.1436 29.599 42.1436 29.443H42.3506C42.3506 29.743 42.2891 30.0205 42.1661 30.2755C42.0461 30.5275 41.8706 30.7315 41.6396 30.8875C41.4086 31.0405 41.1296 31.117 40.8026 31.117ZM50.6255 31V28.462C50.6255 28.087 50.5355 27.8035 50.3555 27.6115C50.1785 27.4165 49.94 27.319 49.64 27.319C49.28 27.319 49.001 27.46 48.803 27.742C48.608 28.024 48.5105 28.429 48.5105 28.957H48.137C48.137 28.54 48.1775 28.18 48.2585 27.877C48.3395 27.574 48.455 27.325 48.605 27.13C48.758 26.935 48.9395 26.791 49.1495 26.698C49.3625 26.602 49.5995 26.554 49.8605 26.554C50.2085 26.554 50.5025 26.632 50.7425 26.788C50.9855 26.944 51.17 27.166 51.296 27.454C51.422 27.739 51.485 28.075 51.485 28.462V31H50.6255ZM44.627 31V26.671H45.3695L45.464 27.4855C45.602 27.1825 45.791 26.9515 46.031 26.7925C46.274 26.6335 46.559 26.554 46.886 26.554C47.234 26.554 47.528 26.632 47.768 26.788C48.011 26.944 48.1955 27.166 48.3215 27.454C48.4475 27.739 48.5105 28.075 48.5105 28.462V31H47.66V28.462C47.66 28.087 47.57 27.8035 47.39 27.6115C47.213 27.4165 46.973 27.319 46.67 27.319C46.43 27.319 46.22 27.385 46.04 27.517C45.863 27.646 45.725 27.8365 45.626 28.0885C45.53 28.3375 45.482 28.642 45.482 29.002V31H44.627ZM54.6522 31.117C54.2802 31.117 53.9442 31.021 53.6442 30.829C53.3442 30.637 53.1057 30.37 52.9287 30.028C52.7547 29.686 52.6677 29.29 52.6677 28.84C52.6677 28.363 52.7547 27.955 52.9287 27.616C53.1027 27.274 53.3397 27.0115 53.6397 26.8285C53.9397 26.6455 54.2772 26.554 54.6522 26.554C54.9882 26.554 55.2762 26.623 55.5162 26.761C55.7562 26.896 55.9497 27.079 56.0967 27.31C56.2437 27.538 56.3442 27.7975 56.3982 28.0885C56.4552 28.3795 56.4657 28.6795 56.4297 28.9885H53.3517V28.4935H55.8447L55.6377 28.6285C55.6467 28.4665 55.6377 28.3045 55.6107 28.1425C55.5867 27.9805 55.5387 27.832 55.4667 27.697C55.3947 27.559 55.2927 27.4495 55.1607 27.3685C55.0317 27.2845 54.8667 27.2425 54.6657 27.2425C54.4137 27.2425 54.2022 27.3055 54.0312 27.4315C53.8632 27.5575 53.7357 27.727 53.6487 27.94C53.5617 28.15 53.5182 28.381 53.5182 28.633V28.9795C53.5182 29.2585 53.5602 29.506 53.6442 29.722C53.7282 29.938 53.8527 30.109 54.0177 30.235C54.1857 30.358 54.3972 30.4195 54.6522 30.4195C54.9012 30.4195 55.1067 30.361 55.2687 30.244C55.4337 30.127 55.5357 29.9515 55.5747 29.7175H56.4477C56.4027 29.9995 56.2992 30.2455 56.1372 30.4555C55.9752 30.6655 55.7667 30.829 55.5117 30.946C55.2597 31.06 54.9732 31.117 54.6522 31.117ZM59.1747 31.117C58.9287 31.117 58.7067 31.0705 58.5087 30.9775C58.3107 30.8845 58.1532 30.745 58.0362 30.559C57.9222 30.37 57.8652 30.133 57.8652 29.848V25.492H58.7157V29.821C58.7157 30.229 58.9062 30.433 59.2872 30.433C59.4042 30.433 59.5182 30.421 59.6292 30.397C59.7402 30.37 59.8662 30.331 60.0072 30.28L60.1287 30.8875C59.9697 30.9535 59.8122 31.0075 59.6562 31.0495C59.5032 31.0945 59.3427 31.117 59.1747 31.117ZM57.2037 27.2515V26.671H59.9982V27.2515H57.2037ZM62.7908 31.117C62.4188 31.117 62.0828 31.021 61.7828 30.829C61.4828 30.637 61.2443 30.37 61.0673 30.028C60.8933 29.686 60.8063 29.29 60.8063 28.84C60.8063 28.363 60.8933 27.955 61.0673 27.616C61.2413 27.274 61.4783 27.0115 61.7783 26.8285C62.0783 26.6455 62.4158 26.554 62.7908 26.554C63.1268 26.554 63.4148 26.623 63.6548 26.761C63.8948 26.896 64.0883 27.079 64.2353 27.31C64.3823 27.538 64.4828 27.7975 64.5368 28.0885C64.5938 28.3795 64.6043 28.6795 64.5683 28.9885H61.4903V28.4935H63.9833L63.7763 28.6285C63.7853 28.4665 63.7763 28.3045 63.7493 28.1425C63.7253 27.9805 63.6773 27.832 63.6053 27.697C63.5333 27.559 63.4313 27.4495 63.2993 27.3685C63.1703 27.2845 63.0053 27.2425 62.8043 27.2425C62.5523 27.2425 62.3408 27.3055 62.1698 27.4315C62.0018 27.5575 61.8743 27.727 61.7873 27.94C61.7003 28.15 61.6568 28.381 61.6568 28.633V28.9795C61.6568 29.2585 61.6988 29.506 61.7828 29.722C61.8668 29.938 61.9913 30.109 62.1563 30.235C62.3243 30.358 62.5358 30.4195 62.7908 30.4195C63.0398 30.4195 63.2453 30.361 63.4073 30.244C63.5723 30.127 63.6743 29.9515 63.7133 29.7175H64.5863C64.5413 29.9995 64.4378 30.2455 64.2758 30.4555C64.1138 30.6655 63.9053 30.829 63.6503 30.946C63.3983 31.06 63.1118 31.117 62.7908 31.117ZM65.9229 31V26.6575H66.7779V31H65.9229ZM66.5439 29.065C66.5439 28.51 66.6009 28.0495 66.7149 27.6835C66.8319 27.3145 66.9939 27.04 67.2009 26.86C67.4109 26.68 67.6569 26.59 67.9389 26.59C68.0229 26.59 68.1009 26.596 68.1729 26.608C68.2479 26.62 68.3214 26.6365 68.3934 26.6575L68.3619 27.508C68.2809 27.487 68.1924 27.469 68.0964 27.454C68.0034 27.436 67.9179 27.427 67.8399 27.427C67.5939 27.427 67.3929 27.493 67.2369 27.625C67.0809 27.754 66.9654 27.9415 66.8904 28.1875C66.8154 28.4305 66.7779 28.723 66.7779 29.065H66.5439ZM14.0825 42.117C13.8365 42.117 13.6145 42.0705 13.4165 41.9775C13.2185 41.8845 13.061 41.745 12.944 41.559C12.83 41.37 12.773 41.133 12.773 40.848V36.492H13.6235V40.821C13.6235 41.229 13.814 41.433 14.195 41.433C14.312 41.433 14.426 41.421 14.537 41.397C14.648 41.37 14.774 41.331 14.915 41.28L15.0365 41.8875C14.8775 41.9535 14.72 42.0075 14.564 42.0495C14.411 42.0945 14.2505 42.117 14.0825 42.117ZM12.1115 38.2515V37.671H14.906V38.2515H12.1115ZM17.7751 42.117C17.3821 42.117 17.0296 42.0315 16.7176 41.8605C16.4086 41.6895 16.1641 41.4345 15.9841 41.0955C15.8041 40.7565 15.7141 40.338 15.7141 39.84C15.7141 39.333 15.8041 38.9115 15.9841 38.5755C16.1641 38.2365 16.4086 37.9815 16.7176 37.8105C17.0296 37.6395 17.3821 37.554 17.7751 37.554C18.1621 37.554 18.5101 37.6395 18.8191 37.8105C19.1281 37.9815 19.3711 38.2365 19.5481 38.5755C19.7281 38.9115 19.8181 39.333 19.8181 39.84C19.8181 40.338 19.7281 40.7565 19.5481 41.0955C19.3711 41.4345 19.1281 41.6895 18.8191 41.8605C18.5101 42.0315 18.1621 42.117 17.7751 42.117ZM17.7481 41.37C17.9971 41.37 18.2116 41.31 18.3916 41.19C18.5746 41.07 18.7141 40.896 18.8101 40.668C18.9091 40.437 18.9586 40.161 18.9586 39.84C18.9586 39.348 18.8581 38.967 18.6571 38.697C18.4591 38.427 18.1726 38.292 17.7976 38.292C17.5456 38.292 17.3281 38.3535 17.1451 38.4765C16.9651 38.5965 16.8256 38.772 16.7266 39.003C16.6306 39.231 16.5826 39.51 16.5826 39.84C16.5826 40.323 16.6831 40.6995 16.8841 40.9695C17.0851 41.2365 17.3731 41.37 17.7481 41.37ZM24.888 42.117C24.516 42.117 24.18 42.021 23.88 41.829C23.58 41.637 23.3415 41.37 23.1645 41.028C22.9905 40.686 22.9035 40.29 22.9035 39.84C22.9035 39.363 22.9905 38.955 23.1645 38.616C23.3385 38.274 23.5755 38.0115 23.8755 37.8285C24.1755 37.6455 24.513 37.554 24.888 37.554C25.224 37.554 25.512 37.623 25.752 37.761C25.992 37.896 26.1855 38.079 26.3325 38.31C26.4795 38.538 26.58 38.7975 26.634 39.0885C26.691 39.3795 26.7015 39.6795 26.6655 39.9885H23.5875V39.4935H26.0805L25.8735 39.6285C25.8825 39.4665 25.8735 39.3045 25.8465 39.1425C25.8225 38.9805 25.7745 38.832 25.7025 38.697C25.6305 38.559 25.5285 38.4495 25.3965 38.3685C25.2675 38.2845 25.1025 38.2425 24.9015 38.2425C24.6495 38.2425 24.438 38.3055 24.267 38.4315C24.099 38.5575 23.9715 38.727 23.8845 38.94C23.7975 39.15 23.754 39.381 23.754 39.633V39.9795C23.754 40.2585 23.796 40.506 23.88 40.722C23.964 40.938 24.0885 41.109 24.2535 41.235C24.4215 41.358 24.633 41.4195 24.888 41.4195C25.137 41.4195 25.3425 41.361 25.5045 41.244C25.6695 41.127 25.7715 40.9515 25.8105 40.7175H26.6835C26.6385 40.9995 26.535 41.2455 26.373 41.4555C26.211 41.6655 26.0025 41.829 25.7475 41.946C25.4955 42.06 25.209 42.117 24.888 42.117ZM27.2821 37.671H28.2631L29.4826 41.2665H29.3926L30.6121 37.671H31.5931L29.9101 42H28.9606L27.2821 37.671ZM35.3215 42L35.2135 41.0055V39.201C35.2135 38.847 35.14 38.5905 34.993 38.4315C34.846 38.2695 34.6135 38.1885 34.2955 38.1885C34.1155 38.1885 33.955 38.2155 33.814 38.2695C33.676 38.3205 33.5665 38.3985 33.4855 38.5035C33.4075 38.6085 33.3685 38.7405 33.3685 38.8995H32.4235C32.4235 38.5815 32.5015 38.3235 32.6575 38.1255C32.8135 37.9275 33.031 37.7835 33.31 37.6935C33.592 37.6005 33.9205 37.554 34.2955 37.554C34.6465 37.554 34.9555 37.6125 35.2225 37.7295C35.4895 37.8435 35.6965 38.0235 35.8435 38.2695C35.9935 38.5155 36.0685 38.8335 36.0685 39.2235V42H35.3215ZM33.8725 42.117C33.5095 42.117 33.208 42.054 32.968 41.928C32.728 41.799 32.548 41.631 32.428 41.424C32.311 41.217 32.2525 40.9965 32.2525 40.7625C32.2525 40.4775 32.3245 40.2435 32.4685 40.0605C32.6155 39.8745 32.818 39.7365 33.076 39.6465C33.334 39.5565 33.631 39.5115 33.967 39.5115C34.198 39.5115 34.423 39.5325 34.642 39.5745C34.861 39.6165 35.077 39.672 35.29 39.741V40.2585C35.116 40.1955 34.9225 40.146 34.7095 40.11C34.4995 40.071 34.303 40.0515 34.12 40.0515C33.847 40.0515 33.619 40.1055 33.436 40.2135C33.253 40.3215 33.1615 40.5045 33.1615 40.7625C33.1615 40.9515 33.2335 41.115 33.3775 41.253C33.5215 41.388 33.7495 41.4555 34.0615 41.4555C34.2895 41.4555 34.4905 41.4045 34.6645 41.3025C34.8385 41.1975 34.9735 41.067 35.0695 40.911C35.1655 40.755 35.2135 40.599 35.2135 40.443H35.4205C35.4205 40.743 35.359 41.0205 35.236 41.2755C35.116 41.5275 34.9405 41.7315 34.7095 41.8875C34.4785 42.0405 34.1995 42.117 33.8725 42.117ZM37.6968 42V35.8485H38.5518V42H37.6968ZM43.2232 37.6575H44.0827V42H43.2232V37.6575ZM40.1992 37.6575H41.0542V40.3395C41.0542 40.6665 41.1337 40.914 41.2927 41.082C41.4547 41.25 41.6812 41.334 41.9722 41.334C42.2182 41.334 42.4342 41.2695 42.6202 41.1405C42.8092 41.0115 42.9562 40.8285 43.0612 40.5915C43.1692 40.3545 43.2232 40.074 43.2232 39.75H43.4977C43.4977 40.257 43.4287 40.683 43.2907 41.028C43.1527 41.373 42.9592 41.6355 42.7102 41.8155C42.4612 41.9925 42.1702 42.081 41.8372 42.081C41.5192 42.081 41.2357 42.0225 40.9867 41.9055C40.7407 41.7885 40.5472 41.6085 40.4062 41.3655C40.2682 41.1195 40.1992 40.803 40.1992 40.416V37.6575ZM48.549 42L48.441 41.0055V39.201C48.441 38.847 48.3675 38.5905 48.2205 38.4315C48.0735 38.2695 47.841 38.1885 47.523 38.1885C47.343 38.1885 47.1825 38.2155 47.0415 38.2695C46.9035 38.3205 46.794 38.3985 46.713 38.5035C46.635 38.6085 46.596 38.7405 46.596 38.8995H45.651C45.651 38.5815 45.729 38.3235 45.885 38.1255C46.041 37.9275 46.2585 37.7835 46.5375 37.6935C46.8195 37.6005 47.148 37.554 47.523 37.554C47.874 37.554 48.183 37.6125 48.45 37.7295C48.717 37.8435 48.924 38.0235 49.071 38.2695C49.221 38.5155 49.296 38.8335 49.296 39.2235V42H48.549ZM47.1 42.117C46.737 42.117 46.4355 42.054 46.1955 41.928C45.9555 41.799 45.7755 41.631 45.6555 41.424C45.5385 41.217 45.48 40.9965 45.48 40.7625C45.48 40.4775 45.552 40.2435 45.696 40.0605C45.843 39.8745 46.0455 39.7365 46.3035 39.6465C46.5615 39.5565 46.8585 39.5115 47.1945 39.5115C47.4255 39.5115 47.6505 39.5325 47.8695 39.5745C48.0885 39.6165 48.3045 39.672 48.5175 39.741V40.2585C48.3435 40.1955 48.15 40.146 47.937 40.11C47.727 40.071 47.5305 40.0515 47.3475 40.0515C47.0745 40.0515 46.8465 40.1055 46.6635 40.2135C46.4805 40.3215 46.389 40.5045 46.389 40.7625C46.389 40.9515 46.461 41.115 46.605 41.253C46.749 41.388 46.977 41.4555 47.289 41.4555C47.517 41.4555 47.718 41.4045 47.892 41.3025C48.066 41.1975 48.201 41.067 48.297 40.911C48.393 40.755 48.441 40.599 48.441 40.443H48.648C48.648 40.743 48.5865 41.0205 48.4635 41.2755C48.3435 41.5275 48.168 41.7315 47.937 41.8875C47.706 42.0405 47.427 42.117 47.1 42.117ZM52.3149 42.117C52.0689 42.117 51.8469 42.0705 51.6489 41.9775C51.4509 41.8845 51.2934 41.745 51.1764 41.559C51.0624 41.37 51.0054 41.133 51.0054 40.848V36.492H51.8559V40.821C51.8559 41.229 52.0464 41.433 52.4274 41.433C52.5444 41.433 52.6584 41.421 52.7694 41.397C52.8804 41.37 53.0064 41.331 53.1474 41.28L53.2689 41.8875C53.1099 41.9535 52.9524 42.0075 52.7964 42.0495C52.6434 42.0945 52.4829 42.117 52.3149 42.117ZM50.3439 38.2515V37.671H53.1384V38.2515H50.3439ZM55.931 42.117C55.559 42.117 55.223 42.021 54.923 41.829C54.623 41.637 54.3845 41.37 54.2075 41.028C54.0335 40.686 53.9465 40.29 53.9465 39.84C53.9465 39.363 54.0335 38.955 54.2075 38.616C54.3815 38.274 54.6185 38.0115 54.9185 37.8285C55.2185 37.6455 55.556 37.554 55.931 37.554C56.267 37.554 56.555 37.623 56.795 37.761C57.035 37.896 57.2285 38.079 57.3755 38.31C57.5225 38.538 57.623 38.7975 57.677 39.0885C57.734 39.3795 57.7445 39.6795 57.7085 39.9885H54.6305V39.4935H57.1235L56.9165 39.6285C56.9255 39.4665 56.9165 39.3045 56.8895 39.1425C56.8655 38.9805 56.8175 38.832 56.7455 38.697C56.6735 38.559 56.5715 38.4495 56.4395 38.3685C56.3105 38.2845 56.1455 38.2425 55.9445 38.2425C55.6925 38.2425 55.481 38.3055 55.31 38.4315C55.142 38.5575 55.0145 38.727 54.9275 38.94C54.8405 39.15 54.797 39.381 54.797 39.633V39.9795C54.797 40.2585 54.839 40.506 54.923 40.722C55.007 40.938 55.1315 41.109 55.2965 41.235C55.4645 41.358 55.676 41.4195 55.931 41.4195C56.18 41.4195 56.3855 41.361 56.5475 41.244C56.7125 41.127 56.8145 40.9515 56.8535 40.7175H57.7265C57.6815 40.9995 57.578 41.2455 57.416 41.4555C57.254 41.6655 57.0455 41.829 56.7905 41.946C56.5385 42.06 56.252 42.117 55.931 42.117Z" fill="black"/>
<path d="M31.2627 53.3642C31.3348 52.9316 31.613 52.4319 32.0971 51.8653C32.5813 51.2987 33.1788 51.0103 33.8896 51C34.2502 51 34.5798 51.0927 34.8786 51.2781C35.1773 51.4636 35.3988 51.6954 35.543 51.9735C35.9757 51.3245 36.496 51 37.1038 51C37.4849 51 37.8146 51.1133 38.0927 51.34C38.3709 51.5666 38.5151 51.8705 38.5254 52.2517C38.5254 52.5504 38.4533 52.7925 38.3091 52.9779C38.1648 53.1634 38.0258 53.2767 37.8918 53.3179C37.7579 53.3591 37.6394 53.3797 37.5364 53.3797C37.3407 53.3797 37.181 53.323 37.0574 53.2097C36.9338 53.0964 36.872 52.947 36.872 52.7616C36.872 52.2877 37.1295 51.9632 37.6446 51.7881C37.5313 51.6542 37.3252 51.5872 37.0265 51.5872C36.8926 51.5872 36.7947 51.5975 36.7329 51.6181C36.3414 51.7829 36.053 52.1229 35.8675 52.638C35.2494 54.9146 34.9404 56.2436 34.9404 56.6247C34.9404 56.9132 35.0228 57.1192 35.1876 57.2428C35.3525 57.3664 35.5327 57.4283 35.7285 57.4283C36.1096 57.4283 36.4857 57.2583 36.8565 56.9183C37.2274 56.5784 37.4798 56.1611 37.6137 55.6667C37.6446 55.5636 37.6755 55.507 37.7064 55.4967C37.7373 55.4864 37.8197 55.4761 37.9536 55.4658H38.0155C38.17 55.4658 38.2472 55.507 38.2472 55.5894C38.2472 55.5997 38.2369 55.6564 38.2163 55.7594C38.0515 56.3466 37.7322 56.8668 37.2583 57.3201C36.7844 57.7734 36.2333 58 35.6049 58C34.8837 58 34.3377 57.6755 33.9669 57.0265C33.5445 57.6652 33.0603 57.9845 32.5143 57.9845H32.4216C31.9169 57.9845 31.5563 57.8506 31.34 57.5828C31.1236 57.3149 31.0103 57.0316 31 56.7329C31 56.4032 31.0979 56.1354 31.2936 55.9294C31.4893 55.7233 31.7211 55.6203 31.989 55.6203C32.4319 55.6203 32.6534 55.8366 32.6534 56.2693C32.6534 56.4753 32.5916 56.6556 32.468 56.8102C32.3444 56.9647 32.2259 57.0677 32.1126 57.1192C31.9993 57.1707 31.9323 57.1965 31.9117 57.1965L31.8653 57.2119C31.8653 57.2222 31.8962 57.2428 31.9581 57.2737C32.0199 57.3046 32.1023 57.3407 32.2053 57.3819C32.3083 57.4231 32.4062 57.4386 32.4989 57.4283C32.8698 57.4283 33.1891 57.1965 33.457 56.7329C33.5497 56.5681 33.6681 56.2178 33.8124 55.6821C33.9566 55.1464 34.1008 54.5901 34.245 54.0132C34.3893 53.4364 34.4717 53.0964 34.4923 52.9934C34.5438 52.7152 34.5695 52.5143 34.5695 52.3907C34.5695 52.1023 34.4923 51.8962 34.3377 51.7726C34.1832 51.649 34.0081 51.5872 33.8124 51.5872C33.4003 51.5872 33.014 51.752 32.6534 52.0817C32.2929 52.4113 32.0405 52.8337 31.8962 53.3488C31.8756 53.4415 31.8499 53.493 31.819 53.5033C31.7881 53.5136 31.7057 53.5239 31.5717 53.5342H31.3554C31.2936 53.4724 31.2627 53.4157 31.2627 53.3642Z" fill="black"/>
<path d="M122.347 4.72474C122.347 4.66325 122.097 4.62372 121.596 4.60615C121.394 4.60615 121.262 4.60176 121.201 4.59297C121.139 4.58419 121.108 4.54466 121.108 4.47438C121.108 4.4041 121.126 4.31625 121.161 4.21083C121.196 4.10542 121.227 4.03953 121.253 4.01318C121.271 4.00439 122.145 4 123.876 4C125.343 4.00878 126.164 4.01318 126.34 4.01318C126.515 4.01318 126.691 4.03953 126.867 4.09224C127.499 4.24158 128.035 4.58858 128.474 5.13324C128.914 5.67789 129.138 6.40703 129.146 7.32064C129.146 8.69107 128.676 9.92094 127.736 11.0102C126.796 12.0996 125.69 12.7496 124.416 12.9605L124.231 12.9868L121.675 13H119.514C119.303 13 119.167 12.9912 119.105 12.9736C119.044 12.9561 119.009 12.9165 119 12.8551C119 12.8375 119.013 12.776 119.04 12.6706C119.075 12.53 119.11 12.451 119.145 12.4334C119.18 12.4158 119.281 12.4026 119.448 12.3939C119.685 12.3939 119.949 12.3807 120.239 12.3543C120.362 12.328 120.445 12.2753 120.489 12.1962C120.515 12.1611 120.832 10.94 121.438 8.53294C122.044 6.12592 122.347 4.85652 122.347 4.72474ZM127.829 6.81991C127.829 6.48609 127.78 6.18741 127.684 5.92387C127.587 5.66032 127.473 5.45388 127.341 5.30454C127.209 5.1552 127.047 5.02782 126.854 4.9224C126.66 4.81698 126.489 4.74671 126.34 4.71157C126.19 4.67643 126.037 4.64568 125.878 4.61933C125.861 4.61933 125.799 4.61933 125.694 4.61933C125.589 4.61933 125.461 4.61933 125.312 4.61933C125.163 4.61933 125.018 4.61493 124.877 4.60615H124.31C123.924 4.60615 123.704 4.65007 123.652 4.73792C123.634 4.77306 123.313 6.03807 122.69 8.53294C122.066 11.0278 121.754 12.2884 121.754 12.3148C121.754 12.3499 121.802 12.3675 121.899 12.3675C121.996 12.3675 122.334 12.3719 122.914 12.3807C122.958 12.3807 123.041 12.3807 123.164 12.3807C123.287 12.3807 123.392 12.3851 123.48 12.3939C124.587 12.3939 125.501 12.0337 126.221 11.3133C126.537 10.9971 126.796 10.6281 126.999 10.2064C127.201 9.78477 127.389 9.22694 127.565 8.53294C127.741 7.83895 127.829 7.26794 127.829 6.81991Z" fill="black"/>
<path d="M354.076 58.112C354.076 58.304 354.26 58.416 354.628 58.448C354.772 58.448 354.844 58.492 354.844 58.58C354.844 58.588 354.836 58.64 354.82 58.736C354.796 58.848 354.772 58.92 354.748 58.952C354.724 58.984 354.672 59 354.592 59C354.576 59 354.528 59 354.448 59C354.368 59 354.232 58.996 354.04 58.988C353.848 58.98 353.592 58.976 353.272 58.976C352.704 58.976 352.34 58.984 352.18 59H352.084C352.028 58.944 352 58.9 352 58.868C352.016 58.652 352.068 58.512 352.156 58.448H352.324C352.884 58.424 353.292 58.224 353.548 57.848C353.596 57.8 354.32 56.58 355.72 54.188C357.12 51.796 357.832 50.584 357.856 50.552C357.912 50.456 358.008 50.408 358.144 50.408H358.444C358.492 50.48 358.516 50.52 358.516 50.528L358.852 54.404C359.076 56.988 359.196 58.292 359.212 58.316C359.252 58.404 359.512 58.448 359.992 58.448C360.192 58.448 360.292 58.488 360.292 58.568C360.292 58.584 360.28 58.64 360.256 58.736C360.232 58.856 360.212 58.928 360.196 58.952C360.18 58.976 360.124 58.992 360.028 59C360.004 59 359.948 59 359.86 59C359.772 59 359.616 58.996 359.392 58.988C359.168 58.98 358.876 58.976 358.516 58.976C357.764 58.976 357.272 58.984 357.04 59H356.896C356.848 58.952 356.824 58.916 356.824 58.892C356.824 58.868 356.832 58.796 356.848 58.676C356.88 58.572 356.904 58.508 356.92 58.484L356.968 58.448H357.208C357.64 58.424 357.896 58.356 357.976 58.244L357.832 56.444H354.976L354.568 57.14C354.24 57.692 354.076 58.016 354.076 58.112ZM357.772 55.88C357.772 55.792 357.724 55.168 357.628 54.008C357.532 52.848 357.476 52.264 357.46 52.256L357.136 52.772C357.008 52.988 356.756 53.416 356.38 54.056L355.3 55.88L356.536 55.892C357.36 55.892 357.772 55.888 357.772 55.88Z" fill="black"/>
<path d="M361.708 56C361.708 55.448 361.748 54.924 361.828 54.428C361.908 53.932 362 53.504 362.104 53.144C362.208 52.784 362.356 52.432 362.548 52.088C362.74 51.744 362.892 51.476 363.004 51.284C363.116 51.092 363.284 50.884 363.508 50.66C363.732 50.436 363.864 50.3 363.904 50.252C363.944 50.204 364.044 50.12 364.204 50H364.408C364.52 50 364.576 50.036 364.576 50.108C364.576 50.132 364.508 50.216 364.372 50.36C364.236 50.504 364.072 50.716 363.88 50.996C363.688 51.276 363.492 51.62 363.292 52.028C363.092 52.436 362.924 52.988 362.788 53.684C362.652 54.38 362.584 55.152 362.584 56C362.584 56.848 362.652 57.616 362.788 58.304C362.924 58.992 363.088 59.548 363.28 59.972C363.472 60.396 363.668 60.74 363.868 61.004C364.068 61.268 364.236 61.48 364.372 61.64C364.508 61.8 364.576 61.884 364.576 61.892C364.576 61.964 364.516 62 364.396 62H364.204L363.868 61.712C363.116 61.032 362.568 60.184 362.224 59.168C361.88 58.152 361.708 57.096 361.708 56Z" fill="black"/>
<path d="M365.872 55.532C365.928 55.196 366.144 54.808 366.52 54.368C366.896 53.928 367.36 53.704 367.912 53.696C368.192 53.696 368.448 53.768 368.68 53.912C368.912 54.056 369.084 54.236 369.196 54.452C369.532 53.948 369.936 53.696 370.408 53.696C370.704 53.696 370.96 53.784 371.176 53.96C371.392 54.136 371.504 54.372 371.512 54.668C371.512 54.9 371.456 55.088 371.344 55.232C371.232 55.376 371.124 55.464 371.02 55.496C370.916 55.528 370.824 55.544 370.744 55.544C370.592 55.544 370.468 55.5 370.372 55.412C370.276 55.324 370.228 55.208 370.228 55.064C370.228 54.696 370.428 54.444 370.828 54.308C370.74 54.204 370.58 54.152 370.348 54.152C370.244 54.152 370.168 54.16 370.12 54.176C369.816 54.304 369.592 54.568 369.448 54.968C368.968 56.736 368.728 57.768 368.728 58.064C368.728 58.288 368.792 58.448 368.92 58.544C369.048 58.64 369.188 58.688 369.34 58.688C369.636 58.688 369.928 58.556 370.216 58.292C370.504 58.028 370.7 57.704 370.804 57.32C370.828 57.24 370.852 57.196 370.876 57.188C370.9 57.18 370.964 57.172 371.068 57.164H371.116C371.236 57.164 371.296 57.196 371.296 57.26C371.296 57.268 371.288 57.312 371.272 57.392C371.144 57.848 370.896 58.252 370.528 58.604C370.16 58.956 369.732 59.132 369.244 59.132C368.684 59.132 368.26 58.88 367.972 58.376C367.644 58.872 367.268 59.12 366.844 59.12H366.772C366.38 59.12 366.1 59.016 365.932 58.808C365.764 58.6 365.676 58.38 365.668 58.148C365.668 57.892 365.744 57.684 365.896 57.524C366.048 57.364 366.228 57.284 366.436 57.284C366.78 57.284 366.952 57.452 366.952 57.788C366.952 57.948 366.904 58.088 366.808 58.208C366.712 58.328 366.62 58.408 366.532 58.448C366.444 58.488 366.392 58.508 366.376 58.508L366.34 58.52C366.34 58.528 366.364 58.544 366.412 58.568C366.46 58.592 366.524 58.62 366.604 58.652C366.684 58.684 366.76 58.696 366.832 58.688C367.12 58.688 367.368 58.508 367.576 58.148C367.648 58.02 367.74 57.748 367.852 57.332C367.964 56.916 368.076 56.484 368.188 56.036C368.3 55.588 368.364 55.324 368.38 55.244C368.42 55.028 368.44 54.872 368.44 54.776C368.44 54.552 368.38 54.392 368.26 54.296C368.14 54.2 368.004 54.152 367.852 54.152C367.532 54.152 367.232 54.28 366.952 54.536C366.672 54.792 366.476 55.12 366.364 55.52C366.348 55.592 366.328 55.632 366.304 55.64C366.28 55.648 366.216 55.656 366.112 55.664H365.944C365.896 55.616 365.872 55.572 365.872 55.532Z" fill="black"/>
<path d="M372.832 50.012L372.88 50C372.92 50 372.96 50 373 50H373.144L373.48 50.288C374.232 50.968 374.78 51.816 375.124 52.832C375.468 53.848 375.64 54.904 375.64 56C375.64 56.544 375.6 57.068 375.52 57.572C375.44 58.076 375.348 58.504 375.244 58.856C375.14 59.208 374.992 59.56 374.8 59.912C374.608 60.264 374.456 60.532 374.344 60.716C374.232 60.9 374.068 61.104 373.852 61.328C373.636 61.552 373.508 61.684 373.468 61.724C373.428 61.764 373.336 61.84 373.192 61.952C373.168 61.976 373.152 61.992 373.144 62H373C372.936 62 372.892 62 372.868 62C372.844 62 372.824 61.988 372.808 61.964C372.792 61.94 372.78 61.904 372.772 61.856C372.78 61.848 372.824 61.796 372.904 61.7C374.144 60.412 374.764 58.512 374.764 56C374.764 53.488 374.144 51.588 372.904 50.3C372.824 50.204 372.78 50.152 372.772 50.144C372.772 50.08 372.792 50.036 372.832 50.012Z" fill="black"/>
<path d="M169.744 66.556C169.752 66.532 169.76 66.5 169.768 66.46C169.776 66.42 169.796 66.332 169.828 66.196C169.86 66.06 169.9 65.936 169.948 65.824C169.996 65.712 170.056 65.58 170.128 65.428C170.2 65.276 170.28 65.156 170.368 65.068C170.456 64.98 170.56 64.892 170.68 64.804C170.8 64.716 170.932 64.68 171.076 64.696C171.676 64.696 172.06 64.952 172.228 65.464L172.348 65.356C172.844 64.916 173.316 64.696 173.764 64.696C174.284 64.696 174.692 64.884 174.988 65.26C175.284 65.636 175.432 66.092 175.432 66.628C175.432 67.492 175.128 68.288 174.52 69.016C173.912 69.744 173.224 70.112 172.456 70.12C172.28 70.12 172.124 70.096 171.988 70.048C171.9 70.008 171.808 69.948 171.712 69.868C171.616 69.788 171.54 69.72 171.484 69.664L171.4 69.568C171.392 69.576 171.304 69.924 171.136 70.612C170.968 71.3 170.884 71.648 170.884 71.656C170.884 71.704 170.916 71.732 170.98 71.74C171.044 71.748 171.192 71.76 171.424 71.776H171.724C171.772 71.832 171.796 71.868 171.796 71.884C171.796 71.9 171.784 71.972 171.76 72.1C171.736 72.196 171.712 72.256 171.688 72.28C171.664 72.304 171.612 72.32 171.532 72.328C171.516 72.328 171.472 72.328 171.4 72.328C171.328 72.328 171.192 72.324 170.992 72.316C170.792 72.308 170.544 72.304 170.248 72.304C169.688 72.304 169.332 72.312 169.18 72.328H169.084C169.028 72.272 169 72.228 169 72.196C169.016 71.98 169.068 71.84 169.156 71.776H169.396C169.668 71.768 169.824 71.72 169.864 71.632C169.888 71.584 170.132 70.628 170.596 68.764C171.06 66.9 171.304 65.912 171.328 65.8C171.336 65.76 171.34 65.704 171.34 65.632C171.34 65.304 171.24 65.14 171.04 65.14C170.864 65.14 170.716 65.252 170.596 65.476C170.476 65.7 170.384 65.944 170.32 66.208C170.256 66.472 170.208 66.616 170.176 66.64C170.16 66.656 170.096 66.664 169.984 66.664H169.816C169.768 66.616 169.744 66.58 169.744 66.556ZM171.604 68.776C171.78 69.384 172.076 69.688 172.492 69.688C172.732 69.688 172.964 69.596 173.188 69.412C173.412 69.228 173.596 68.996 173.74 68.716C173.884 68.444 174.028 68.012 174.172 67.42C174.316 66.828 174.392 66.388 174.4 66.1V66.028C174.4 65.436 174.156 65.14 173.668 65.14C173.58 65.14 173.492 65.152 173.404 65.176C173.316 65.2 173.228 65.236 173.14 65.284C173.052 65.332 172.972 65.384 172.9 65.44C172.828 65.496 172.76 65.556 172.696 65.62C172.632 65.684 172.572 65.744 172.516 65.8C172.46 65.856 172.416 65.912 172.384 65.968C172.352 66.024 172.32 66.064 172.288 66.088L172.252 66.136C172.252 66.144 172.24 66.2 172.216 66.304C172.192 66.408 172.148 66.584 172.084 66.832C172.02 67.08 171.964 67.288 171.916 67.456C171.708 68.304 171.604 68.744 171.604 68.776Z" fill="black"/>
<path d="M175.801 70.1032C175.801 69.5263 175.911 68.9183 176.132 68.2792C176.352 67.6401 176.652 67.0886 177.031 66.6248C177.41 66.161 177.803 65.8952 178.21 65.8273C178.216 65.8273 178.239 65.8273 178.278 65.8273C178.318 65.8273 178.352 65.8245 178.38 65.8188C178.685 65.8415 178.923 65.98 179.093 66.2345C179.313 66.5739 179.424 67.0292 179.424 67.6005C179.424 68.2509 179.296 68.9127 179.042 69.5857C178.787 70.2588 178.462 70.8102 178.066 71.2401C177.67 71.67 177.291 71.8849 176.929 71.8849H176.87C176.666 71.8849 176.491 71.8283 176.344 71.7152C176.197 71.6021 176.087 71.4522 176.013 71.2656C175.939 71.0789 175.886 70.8894 175.852 70.6971C175.818 70.5048 175.801 70.3069 175.801 70.1032ZM178.753 66.9981C178.753 66.4212 178.603 66.1327 178.304 66.1327C178.1 66.1327 177.902 66.26 177.71 66.5145C177.517 66.769 177.359 67.0575 177.235 67.3799C177.11 67.7023 177.014 67.9851 176.946 68.2283C176.878 68.4715 176.842 68.6129 176.836 68.6525C177.113 68.6581 177.387 68.661 177.659 68.661L178.482 68.6525C178.488 68.6468 178.51 68.5535 178.55 68.3725C178.589 68.1915 178.635 67.9653 178.685 67.6938C178.736 67.4223 178.759 67.1904 178.753 66.9981ZM176.463 70.6802C176.463 71.2797 176.613 71.5795 176.912 71.5795C176.997 71.5795 177.088 71.5512 177.184 71.4946C177.28 71.4381 177.396 71.3306 177.532 71.1722C177.667 71.0139 177.803 70.7678 177.939 70.4341C178.075 70.1004 178.21 69.6875 178.346 69.1955L178.389 69.0512H176.734C176.734 69.0682 176.709 69.1757 176.658 69.3736C176.607 69.5716 176.562 69.7922 176.522 70.0354C176.482 70.2786 176.463 70.4935 176.463 70.6802Z" fill="black"/>
<path d="M181.211 67C181.211 66.448 181.251 65.924 181.331 65.428C181.411 64.932 181.503 64.504 181.607 64.144C181.711 63.784 181.859 63.432 182.051 63.088C182.243 62.744 182.395 62.476 182.507 62.284C182.619 62.092 182.787 61.884 183.011 61.66C183.235 61.436 183.367 61.3 183.407 61.252C183.447 61.204 183.547 61.12 183.707 61H183.911C184.023 61 184.079 61.036 184.079 61.108C184.079 61.132 184.011 61.216 183.875 61.36C183.739 61.504 183.575 61.716 183.383 61.996C183.191 62.276 182.995 62.62 182.795 63.028C182.595 63.436 182.427 63.988 182.291 64.684C182.155 65.38 182.087 66.152 182.087 67C182.087 67.848 182.155 68.616 182.291 69.304C182.427 69.992 182.591 70.548 182.783 70.972C182.975 71.396 183.171 71.74 183.371 72.004C183.571 72.268 183.739 72.48 183.875 72.64C184.011 72.8 184.079 72.884 184.079 72.892C184.079 72.964 184.019 73 183.899 73H183.707L183.371 72.712C182.619 72.032 182.071 71.184 181.727 70.168C181.383 69.152 181.211 68.096 181.211 67Z" fill="black"/>
<path d="M186.167 71.944C186.183 71.944 186.207 71.952 186.239 71.968C186.271 71.984 186.315 71.996 186.371 72.004C186.427 72.012 186.475 72.016 186.515 72.016C186.619 72.016 186.715 71.964 186.803 71.86C186.891 71.756 186.955 71.64 186.995 71.512C187.075 71.296 187.211 70.684 187.403 69.676C187.595 68.668 187.779 67.708 187.955 66.796C188.131 65.884 188.219 65.424 188.219 65.416V65.38H187.655C187.279 65.38 187.079 65.372 187.055 65.356C187.023 65.332 187.007 65.292 187.007 65.236L187.091 64.9C187.107 64.86 187.139 64.84 187.187 64.84C187.235 64.84 187.423 64.836 187.751 64.828C188.135 64.828 188.327 64.824 188.327 64.816C188.327 64.8 188.363 64.6 188.435 64.216C188.507 63.832 188.555 63.6 188.579 63.52C188.875 62.2 189.459 61.54 190.331 61.54C190.627 61.556 190.871 61.644 191.063 61.804C191.255 61.964 191.351 62.176 191.351 62.44C191.351 62.728 191.267 62.936 191.099 63.064C190.931 63.192 190.763 63.26 190.595 63.268C190.243 63.268 190.067 63.1 190.067 62.764C190.067 62.612 190.111 62.48 190.199 62.368C190.287 62.256 190.383 62.172 190.487 62.116L190.595 62.056C190.467 62.008 190.347 61.984 190.235 61.984C190.139 61.984 190.047 62.024 189.959 62.104C189.871 62.184 189.811 62.296 189.779 62.44C189.723 62.672 189.659 62.984 189.587 63.376C189.515 63.768 189.451 64.1 189.395 64.372C189.339 64.644 189.311 64.788 189.311 64.804C189.311 64.82 189.531 64.828 189.971 64.828C190.331 64.828 190.539 64.832 190.595 64.84C190.651 64.848 190.695 64.872 190.727 64.912C190.735 64.944 190.727 65.012 190.703 65.116C190.679 65.22 190.659 65.284 190.643 65.308C190.627 65.348 190.591 65.368 190.535 65.368C190.479 65.368 190.263 65.372 189.887 65.38H189.215L188.939 66.844C188.555 68.828 188.287 70.068 188.135 70.564C187.919 71.244 187.639 71.748 187.295 72.076C186.999 72.332 186.707 72.46 186.419 72.46C186.163 72.46 185.931 72.384 185.723 72.232C185.515 72.08 185.411 71.864 185.411 71.584C185.411 71.288 185.495 71.072 185.663 70.936C185.831 70.8 185.999 70.732 186.167 70.732C186.519 70.732 186.695 70.9 186.695 71.236C186.695 71.388 186.651 71.52 186.563 71.632C186.475 71.744 186.379 71.828 186.275 71.884L186.167 71.944Z" fill="black"/>
<path d="M192.479 67C192.479 66.448 192.519 65.924 192.599 65.428C192.679 64.932 192.771 64.504 192.875 64.144C192.979 63.784 193.127 63.432 193.319 63.088C193.511 62.744 193.663 62.476 193.775 62.284C193.887 62.092 194.055 61.884 194.279 61.66C194.503 61.436 194.635 61.3 194.675 61.252C194.715 61.204 194.815 61.12 194.975 61H195.179C195.291 61 195.347 61.036 195.347 61.108C195.347 61.132 195.279 61.216 195.143 61.36C195.007 61.504 194.843 61.716 194.651 61.996C194.459 62.276 194.263 62.62 194.063 63.028C193.863 63.436 193.695 63.988 193.559 64.684C193.423 65.38 193.355 66.152 193.355 67C193.355 67.848 193.423 68.616 193.559 69.304C193.695 69.992 193.859 70.548 194.051 70.972C194.243 71.396 194.439 71.74 194.639 72.004C194.839 72.268 195.007 72.48 195.143 72.64C195.279 72.8 195.347 72.884 195.347 72.892C195.347 72.964 195.287 73 195.167 73H194.975L194.639 72.712C193.887 72.032 193.339 71.184 192.995 70.168C192.651 69.152 192.479 68.096 192.479 67Z" fill="black"/>
<path d="M196.643 66.532C196.699 66.196 196.915 65.808 197.291 65.368C197.667 64.928 198.131 64.704 198.683 64.696C198.963 64.696 199.219 64.768 199.451 64.912C199.683 65.056 199.855 65.236 199.967 65.452C200.303 64.948 200.707 64.696 201.179 64.696C201.475 64.696 201.731 64.784 201.947 64.96C202.163 65.136 202.275 65.372 202.283 65.668C202.283 65.9 202.227 66.088 202.115 66.232C202.003 66.376 201.895 66.464 201.791 66.496C201.687 66.528 201.595 66.544 201.515 66.544C201.363 66.544 201.239 66.5 201.143 66.412C201.047 66.324 200.999 66.208 200.999 66.064C200.999 65.696 201.199 65.444 201.599 65.308C201.511 65.204 201.351 65.152 201.119 65.152C201.015 65.152 200.939 65.16 200.891 65.176C200.587 65.304 200.363 65.568 200.219 65.968C199.739 67.736 199.499 68.768 199.499 69.064C199.499 69.288 199.563 69.448 199.691 69.544C199.819 69.64 199.959 69.688 200.111 69.688C200.407 69.688 200.699 69.556 200.987 69.292C201.275 69.028 201.471 68.704 201.575 68.32C201.599 68.24 201.623 68.196 201.647 68.188C201.671 68.18 201.735 68.172 201.839 68.164H201.887C202.007 68.164 202.067 68.196 202.067 68.26C202.067 68.268 202.059 68.312 202.043 68.392C201.915 68.848 201.667 69.252 201.299 69.604C200.931 69.956 200.503 70.132 200.015 70.132C199.455 70.132 199.031 69.88 198.743 69.376C198.415 69.872 198.039 70.12 197.615 70.12H197.543C197.151 70.12 196.871 70.016 196.703 69.808C196.535 69.6 196.447 69.38 196.439 69.148C196.439 68.892 196.515 68.684 196.667 68.524C196.819 68.364 196.999 68.284 197.207 68.284C197.551 68.284 197.723 68.452 197.723 68.788C197.723 68.948 197.675 69.088 197.579 69.208C197.483 69.328 197.391 69.408 197.303 69.448C197.215 69.488 197.163 69.508 197.147 69.508L197.111 69.52C197.111 69.528 197.135 69.544 197.183 69.568C197.231 69.592 197.295 69.62 197.375 69.652C197.455 69.684 197.531 69.696 197.603 69.688C197.891 69.688 198.139 69.508 198.347 69.148C198.419 69.02 198.511 68.748 198.623 68.332C198.735 67.916 198.847 67.484 198.959 67.036C199.071 66.588 199.135 66.324 199.151 66.244C199.191 66.028 199.211 65.872 199.211 65.776C199.211 65.552 199.151 65.392 199.031 65.296C198.911 65.2 198.775 65.152 198.623 65.152C198.303 65.152 198.003 65.28 197.723 65.536C197.443 65.792 197.247 66.12 197.135 66.52C197.119 66.592 197.099 66.632 197.075 66.64C197.051 66.648 196.987 66.656 196.883 66.664H196.715C196.667 66.616 196.643 66.572 196.643 66.532Z" fill="black"/>
<path d="M203.603 61.012L203.651 61C203.691 61 203.731 61 203.771 61H203.915L204.251 61.288C205.003 61.968 205.551 62.816 205.895 63.832C206.239 64.848 206.411 65.904 206.411 67C206.411 67.544 206.371 68.068 206.291 68.572C206.211 69.076 206.119 69.504 206.015 69.856C205.911 70.208 205.763 70.56 205.571 70.912C205.379 71.264 205.227 71.532 205.115 71.716C205.003 71.9 204.839 72.104 204.623 72.328C204.407 72.552 204.279 72.684 204.239 72.724C204.199 72.764 204.107 72.84 203.963 72.952C203.939 72.976 203.923 72.992 203.915 73H203.771C203.707 73 203.663 73 203.639 73C203.615 73 203.595 72.988 203.579 72.964C203.563 72.94 203.551 72.904 203.543 72.856C203.551 72.848 203.595 72.796 203.675 72.7C204.915 71.412 205.535 69.512 205.535 67C205.535 64.488 204.915 62.588 203.675 61.3C203.595 61.204 203.551 61.152 203.543 61.144C203.543 61.08 203.563 61.036 203.603 61.012Z" fill="black"/>
<path d="M209.195 72.9881C209.099 72.9881 209.027 72.9321 208.979 72.8201V66.9881L208.991 61.1561C209.071 61.0521 209.147 61.0001 209.219 61.0001C209.323 61.0001 209.403 61.0601 209.459 61.1801V72.8201C209.395 72.9321 209.323 72.9881 209.243 72.9881H209.195Z" fill="black"/>
<path d="M214.331 62.464C214.331 62.408 214.103 62.372 213.647 62.356C213.463 62.356 213.343 62.352 213.287 62.344C213.231 62.336 213.203 62.3 213.203 62.236C213.203 62.172 213.219 62.092 213.251 61.996C213.283 61.9 213.311 61.84 213.335 61.816C213.351 61.808 214.147 61.804 215.723 61.804C217.059 61.812 217.807 61.816 217.967 61.816C218.127 61.816 218.287 61.84 218.447 61.888C219.023 62.024 219.511 62.34 219.911 62.836C220.311 63.332 220.515 63.996 220.523 64.828C220.523 66.076 220.095 67.196 219.239 68.188C218.383 69.18 217.375 69.772 216.215 69.964L216.047 69.988L213.719 70H211.751C211.559 70 211.435 69.992 211.379 69.976C211.323 69.96 211.291 69.924 211.283 69.868C211.283 69.852 211.295 69.796 211.319 69.7C211.351 69.572 211.383 69.5 211.415 69.484C211.447 69.468 211.539 69.456 211.691 69.448C211.907 69.448 212.147 69.436 212.411 69.412C212.523 69.388 212.599 69.34 212.639 69.268C212.663 69.236 212.951 68.124 213.503 65.932C214.055 63.74 214.331 62.584 214.331 62.464ZM219.323 64.372C219.323 64.068 219.279 63.796 219.191 63.556C219.103 63.316 218.999 63.128 218.879 62.992C218.759 62.856 218.611 62.74 218.435 62.644C218.259 62.548 218.103 62.484 217.967 62.452C217.831 62.42 217.691 62.392 217.547 62.368C217.531 62.368 217.475 62.368 217.379 62.368C217.283 62.368 217.167 62.368 217.031 62.368C216.895 62.368 216.763 62.364 216.635 62.356H216.119C215.767 62.356 215.567 62.396 215.519 62.476C215.503 62.508 215.211 63.66 214.643 65.932C214.075 68.204 213.791 69.352 213.791 69.376C213.791 69.408 213.835 69.424 213.923 69.424C214.011 69.424 214.319 69.428 214.847 69.436C214.887 69.436 214.963 69.436 215.075 69.436C215.187 69.436 215.283 69.44 215.363 69.448C216.371 69.448 217.203 69.12 217.859 68.464C218.147 68.176 218.383 67.84 218.567 67.456C218.751 67.072 218.923 66.564 219.083 65.932C219.243 65.3 219.323 64.78 219.323 64.372Z" fill="black"/>
<path d="M221.543 61.012L221.591 61C221.631 61 221.671 61 221.711 61H221.855L222.191 61.288C222.943 61.968 223.491 62.816 223.835 63.832C224.179 64.848 224.351 65.904 224.351 67C224.351 67.544 224.311 68.068 224.231 68.572C224.151 69.076 224.059 69.504 223.955 69.856C223.851 70.208 223.703 70.56 223.511 70.912C223.319 71.264 223.167 71.532 223.055 71.716C222.943 71.9 222.779 72.104 222.563 72.328C222.347 72.552 222.219 72.684 222.179 72.724C222.139 72.764 222.047 72.84 221.903 72.952C221.879 72.976 221.863 72.992 221.855 73H221.711C221.647 73 221.603 73 221.579 73C221.555 73 221.535 72.988 221.519 72.964C221.503 72.94 221.491 72.904 221.483 72.856C221.491 72.848 221.535 72.796 221.615 72.7C222.855 71.412 223.475 69.512 223.475 67C223.475 64.488 222.855 62.588 221.615 61.3C221.535 61.204 221.491 61.152 221.483 61.144C221.483 61.08 221.503 61.036 221.543 61.012Z" fill="black"/>
</svg>
